<svg xmlns="http://www.w3.org/2000/svg" width="218.829" height="46.219" viewBox="0 0 218.829 46.219" fill="#fff">
    <path d="M62.72,13.909V31.627c0,4.205-2.041,5.672-4.909,5.672-2.8,0-4.842-1.467-4.842-5.672V13.909H43.407V31.627c0,4.205-2.039,5.672-4.842,5.672-2.868,0-4.909-1.467-4.909-5.672l-.022-.117a20.75,20.75,0,0,0,.15-2.378c0-10.964-8.159-16.191-15.3-16.191-.366,0-.722.026-1.076.054v8.9c4.012.269,6.686,3.3,6.686,7.623,0,4.526-2.932,7.65-7.267,7.65s-7.267-3.124-7.267-7.65c0-.041,0-.08,0-.12V17.2l0,.006V0H0V29.2C0,39.778,7.14,46.088,16.765,46.088a17.483,17.483,0,0,0,11.024-3.583,13.237,13.237,0,0,0,9.819,3.714c4.461,0,8.223-1.721,10.581-5.033,2.356,3.313,6.052,5.033,10.578,5.033,7.648,0,13.511-4.462,13.511-14.593V13.909Z" transform="translate(0 0)" />
    <path d="M127.792,0H130V6.133a5.484,5.484,0,0,1-.071.975h.048a4.841,4.841,0,0,1,4.137-2.164c3.091,0,5.468,2.5,5.468,6.229,0,3.685-2.377,6.229-5.516,6.229a4.781,4.781,0,0,1-4.207-2.567h-.048a4.977,4.977,0,0,1,.071.88l-.047,1.4h-2.045Zm2.234,11.174c0,2.972,1.949,4.3,3.732,4.3,2.211,0,3.685-1.83,3.685-4.3,0-2.52-1.474-4.3-3.685-4.3-1.783,0-3.732,1.331-3.732,4.3" transform="translate(-32.612 0)" />
    <path d="M158.109,12.179c0,.475-.048.927-.048,1.165h-8.844v.024c.071,2.33,1.64,3.8,4.137,3.8a8.583,8.583,0,0,0,4.3-1.117v2.021a9.414,9.414,0,0,1-4.446,1.022,5.959,5.959,0,0,1-6.3-6.229,5.9,5.9,0,0,1,5.824-6.229,5.218,5.218,0,0,1,5.373,5.54m-5.4-3.685a3.49,3.49,0,0,0-3.471,3.281h6.68a3.083,3.083,0,0,0-3.209-3.281" transform="translate(-37.491 -1.695)" />
    <path d="M174.174,18.909h-9.961L170.56,8.877h-5.872V7.022h9.391l-6.347,10.033h6.443Z" transform="translate(-41.906 -1.792)" />
    <path d="M182.445.574a1.3,1.3,0,0,1,1.379,1.356,1.3,1.3,0,0,1-1.379,1.331,1.286,1.286,0,0,1-1.379-1.331A1.292,1.292,0,0,1,182.445.574m1.117,16.69h-2.211V5.376h2.211Z" transform="translate(-46.207 -0.147)" />
    <path d="M200.084,12.179c0,.475-.048.927-.048,1.165h-8.844v.024c.071,2.33,1.64,3.8,4.137,3.8a8.583,8.583,0,0,0,4.3-1.117v2.021a9.414,9.414,0,0,1-4.446,1.022,5.959,5.959,0,0,1-6.3-6.229,5.9,5.9,0,0,1,5.824-6.229,5.218,5.218,0,0,1,5.373,5.54m-5.4-3.685a3.49,3.49,0,0,0-3.471,3.281h6.68a3.083,3.083,0,0,0-3.209-3.281" transform="translate(-48.203 -1.695)" />
    <path d="M208.294,0h2.187V6.609c0,.547-.072,1-.072,1.189h.024a4.983,4.983,0,0,1,4.47-2.853c2.924,0,4.065,1.736,4.065,4.707v7.465h-2.21V10.1c0-1.641-.286-3.114-2.26-3.114a4.029,4.029,0,0,0-3.994,4.279v5.848h-2.211Z" transform="translate(-53.156 0)" />
    <path d="M235.806,18.909l-.048-1.664a5.011,5.011,0,0,1,.1-.9h-.048a4.934,4.934,0,0,1-4.422,2.853c-2.924,0-4.066-1.735-4.066-4.707V7.022h2.211v7.014c0,1.64.285,3.114,2.259,3.114a3.981,3.981,0,0,0,3.875-4.28V7.022h2.211V18.909Z" transform="translate(-58.011 -1.792)" />
    <path d="M249.368,6.924l.048,1.664a3.357,3.357,0,0,1-.1.9h.048a5.043,5.043,0,0,1,4.541-2.853c2.924,0,4.065,1.735,4.065,4.707v7.465h-2.211V11.8c0-1.64-.285-3.114-2.258-3.114a4.03,4.03,0,0,0-3.994,4.28v5.848H247.3V6.924Z" transform="translate(-63.11 -1.695)" />
    <path d="M271.754,16.958c3.019.332,4.731,1.236,4.731,3.4,0,2.282-2.33,3.661-5.706,3.661-3.233,0-5.444-1.094-5.444-3.21,0-1.4,1.45-2.567,3.281-2.924-1.141-.142-1.831-.713-1.831-1.522,0-.689.618-1.331,1.64-1.664a4.053,4.053,0,0,1-2.8-3.851c0-2.5,2.115-4.208,4.826-4.208a5.882,5.882,0,0,1,1.878.285h4.327V8.589h-1.641a3.052,3.052,0,0,1-.666-.1L274.2,8.47a3.211,3.211,0,0,1,1.046,2.377c0,2.33-1.855,3.994-4.35,4.137h-.024c-1.07.1-1.926.5-1.926.951,0,.594.761.784,2.806,1.023m2.52,3.542c0-1.093-.951-1.949-3.638-1.949-1.855,0-3.162.927-3.162,2,0,1.26,1.379,1.9,3.328,1.9,2.14,0,3.471-.784,3.471-1.95m-1.046-9.6a2.78,2.78,0,1,0-2.782,2.544,2.571,2.571,0,0,0,2.782-2.544" transform="translate(-67.712 -1.695)" />
    <path d="M286.289,13.724c-2.116-.69-3.59-1.592-3.59-3.732,0-1.974,1.783-3.352,4.256-3.352a8.338,8.338,0,0,1,3.352.714v2a7.129,7.129,0,0,0-3.114-.832c-1.355,0-2.425.475-2.425,1.545,0,.95.832,1.4,2.449,1.925,2.52.832,3.756,1.759,3.756,3.756,0,2.164-1.759,3.352-4.327,3.352a9.313,9.313,0,0,1-3.875-.785V16.291a9.58,9.58,0,0,0,3.8.975c1.236,0,2.354-.428,2.354-1.545,0-1.022-.88-1.426-2.639-2" transform="translate(-72.144 -1.695)" />
    <path d="M145.868,51.175,150.462,39h3.287l-7.042,17.171H145l-4.225-11.436-4.226,11.436h-1.71L127.792,39h3.32l4.56,12.174,4.26-11.939h1.71Z" transform="translate(-32.612 -9.953)" />
    <path d="M180.6,46.275c0,.671-.067,1.309-.067,1.644H168.058v.034c.1,3.286,2.314,5.366,5.835,5.366a12.107,12.107,0,0,0,6.07-1.576v2.85a13.27,13.27,0,0,1-6.271,1.442c-5.3,0-8.887-3.588-8.887-8.786,0-5.064,3.588-8.786,8.217-8.786,4.93,0,7.579,3.689,7.579,7.814m-7.613-5.2a4.924,4.924,0,0,0-4.9,4.628h9.424a4.35,4.35,0,0,0-4.528-4.628" transform="translate(-42.058 -9.815)" />
    <path d="M192.181,29.1H195.3v8.652a7.762,7.762,0,0,1-.1,1.376h.067a6.826,6.826,0,0,1,5.835-3.052c4.36,0,7.714,3.521,7.714,8.786,0,5.2-3.354,8.786-7.78,8.786a6.745,6.745,0,0,1-5.937-3.622h-.066a6.991,6.991,0,0,1,.1,1.241l-.068,1.979h-2.884Zm3.153,15.762c0,4.193,2.75,6.07,5.265,6.07,3.119,0,5.2-2.582,5.2-6.07,0-3.555-2.079-6.07-5.2-6.07-2.515,0-5.265,1.878-5.265,6.07" transform="translate(-49.044 -7.425)" />
    <path d="M234.948,46.275c0,.671-.067,1.309-.067,1.644H222.405v.034c.1,3.286,2.314,5.366,5.836,5.366a12.109,12.109,0,0,0,6.07-1.576v2.85a13.274,13.274,0,0,1-6.271,1.442c-5.3,0-8.888-3.588-8.888-8.786,0-5.064,3.589-8.786,8.217-8.786,4.93,0,7.579,3.689,7.579,7.814m-7.613-5.2a4.924,4.924,0,0,0-4.9,4.628h9.424a4.35,4.35,0,0,0-4.528-4.628" transform="translate(-55.927 -9.815)" />
    <path d="M246.214,38.863h2.917l.034,2.348c.034.637-.067,1.14-.034,1.241h.034c.973-2.381,2.751-3.991,5.164-3.991a4.813,4.813,0,0,1,1.006.1v3.018a3.552,3.552,0,0,0-.871-.1c-3.253,0-5.131,3.588-5.131,6.842v7.311h-3.119Z" transform="translate(-62.833 -9.815)" />
    <path d="M277.544,46.275c0,.671-.067,1.309-.067,1.644H265v.034c.1,3.286,2.314,5.366,5.835,5.366a12.107,12.107,0,0,0,6.07-1.576v2.85a13.27,13.27,0,0,1-6.271,1.442c-5.3,0-8.887-3.588-8.887-8.786,0-5.064,3.589-8.786,8.217-8.786,4.93,0,7.579,3.689,7.579,7.814m-7.613-5.2a4.924,4.924,0,0,0-4.9,4.628h9.424a4.35,4.35,0,0,0-4.528-4.628" transform="translate(-66.797 -9.815)" />
    <path d="M290.529,29.905a1.9,1.9,0,1,1,0,3.79,1.9,1.9,0,1,1,0-3.79m1.576,23.543h-3.119V36.68h3.119Z" transform="translate(-73.645 -7.632)" />
    <path d="M109.453,46.07A2.08,2.08,0,0,0,112,45.283a23.213,23.213,0,0,1,.219-21.767A24.952,24.952,0,0,0,112.445.148,2.075,2.075,0,0,0,109.9.942,23.2,23.2,0,0,1,109.68,22.7a24.952,24.952,0,0,0-.227,23.368" transform="translate(-27.219 0)" />
</svg>
