<svg xmlns="http://www.w3.org/2000/svg" xmlns:xlink="http://www.w3.org/1999/xlink" width="127.401" height="85.393" viewBox="0 0 127.401 85.393">
  <defs>
    <clipPath id="clip-path">
      <rect id="Rechteck_123" data-name="Rechteck 123" width="127.401" height="85.392" fill="none"/>
    </clipPath>
  </defs>
  <g id="easybeebox-logo-white" transform="translate(0)">
    <g id="Gruppe_1412" data-name="Gruppe 1412" transform="translate(0)" clip-path="url(#clip-path)">
      <path id="Pfad_3581" data-name="Pfad 3581" d="M493.913,77.667c.649,0,1.3.033,1.947-.011a.939.939,0,0,1,.932.514c.881,1.455,1.748,2.919,2.62,4.379.089.149.183.294.27.444a.6.6,0,0,0,1.09.084c.283-.378.519-.792.771-1.193q.981-1.563,1.959-3.129c.142-.227.282-.456.425-.683a.82.82,0,0,1,.783-.418c1.267.023,2.534.011,3.8,0a.726.726,0,0,1,.6.212c.3.323.346.505.1.875-.377.579-.768,1.15-1.152,1.724-.969,1.448-1.95,2.889-2.9,4.349-.488.748-.98,1.494-1.485,2.23a1.144,1.144,0,0,0-.014,1.558q1.288,1.953,2.573,3.907,1.606,2.451,3.2,4.908a3.022,3.022,0,0,1,.171.283.723.723,0,0,1-.581,1.072,1.439,1.439,0,0,1-.19,0c-1.362,0-2.724-.008-4.086,0a.909.909,0,0,1-.854-.485q-.9-1.5-1.819-2.986c-.486-.792-.973-1.584-1.475-2.366a.619.619,0,0,0-1.149.012c-.756,1.172-1.5,2.352-2.247,3.53q-.579.912-1.149,1.83a.919.919,0,0,1-.863.464c-1.314-.012-2.629,0-3.944-.005a1.169,1.169,0,0,1-.89-.6.579.579,0,0,1,.142-.528c.437-.657.872-1.315,1.312-1.97q1.9-2.827,3.805-5.651c.326-.484.67-.955.989-1.443a1.165,1.165,0,0,0,0-1.371q-1.678-2.6-3.343-5.207-1.018-1.59-2.029-3.184c-.292-.46-.258-.7.1-1.029a.584.584,0,0,1,.437-.132c.713,0,1.425,0,2.138,0Z" transform="translate(-382.348 -60.55)" fill="#fff"/>
      <path id="Pfad_3582" data-name="Pfad 3582" d="M101.56,13.431c-1.046,0-2.091,0-3.137,0-.545,0-.767-.226-.768-.777,0-1.236,0-2.472,0-3.708a3.631,3.631,0,0,0-.075-1.085.512.512,0,0,1-.011-.235,17.981,17.981,0,0,0,.083-2.938c.02-1,0-2,.006-2.995A.749.749,0,0,1,98.475.88q2.876,0,5.751,0c.063,0,.127,0,.19,0,.793.073.938.233.938,1.026,0,.19,0,.38,0,.57a.706.706,0,0,1-.788.779c-1.2.006-2.408,0-3.612,0-.588,0-.631.04-.636.61,0,.491-.007.982,0,1.474.007.432.139.57.572.573.982.008,1.965.006,2.947,0a.916.916,0,0,1,.585.146.6.6,0,0,1,.255.44,8.33,8.33,0,0,1,0,1.092c-.022.291-.462.605-.8.607-.919,0-1.838,0-2.757,0a2.531,2.531,0,0,0-.332.007c-.344.046-.468.178-.473.527-.007.6-.006,1.2,0,1.806a.547.547,0,0,0,.571.6c.11.01.222,0,.333,0,1.172,0,2.345.02,3.517-.009.5-.012.7.166.8.726a4.071,4.071,0,0,1,.006.9.844.844,0,0,1-.8.662c-1.061,0-2.123,0-3.184,0" transform="translate(-76.071 -0.685)" fill="#fff"/>
      <path id="Pfad_3583" data-name="Pfad 3583" d="M198.875,12.937a8.383,8.383,0,0,1-3.227-.909,1.6,1.6,0,0,1-.407-.32.325.325,0,0,1-.041-.467,3.744,3.744,0,0,0,.4-.907,1.156,1.156,0,0,1,.209-.369.378.378,0,0,1,.465-.128q.325.14.652.275a6.172,6.172,0,0,0,2.657.549,2.592,2.592,0,0,0,.742-.12,1.443,1.443,0,0,0-.227-2.73c-.537-.176-1.068-.368-1.617-.514a5.132,5.132,0,0,1-2.146-1.153,2.992,2.992,0,0,1-.922-1.906,3.747,3.747,0,0,1,.5-2.412A3.244,3.244,0,0,1,196.8.912,3.871,3.871,0,0,1,198.8.11,7.108,7.108,0,0,1,199.544,0a6.2,6.2,0,0,1,3.39.986,8.134,8.134,0,0,1,.717.455c.27.22.42.435.052.783a3.925,3.925,0,0,0-.494.631c-.036.052-.064.109-.1.157a.528.528,0,0,1-.843.125c-.328-.223-.684-.392-1.028-.585a3.687,3.687,0,0,0-1.849-.266,1.259,1.259,0,0,0-.677.165.931.931,0,0,0-.549.914,4.623,4.623,0,0,1,0,.475.781.781,0,0,0,.345.69,3.606,3.606,0,0,0,.994.522c.713.248,1.443.449,2.14.744a1.691,1.691,0,0,0,.5.118.947.947,0,0,1,.847.532,10.908,10.908,0,0,0,.659,1.133,3.486,3.486,0,0,1,.277,2.071,2.221,2.221,0,0,1-.092.507,3.575,3.575,0,0,1-2.127,2.309,6.254,6.254,0,0,1-2.83.47" transform="translate(-152.146 0)" fill="#fff"/>
      <path id="Pfad_3584" data-name="Pfad 3584" d="M244.756,10.716a7.539,7.539,0,0,1,.008-1.044,3.784,3.784,0,0,0-.7-2.543c-.368-.605-.642-1.258-.988-1.871-.488-.864-.879-1.779-1.4-2.623-.19-.308-.3-.653-.5-.959a.47.47,0,0,1,.341-.711,4.15,4.15,0,0,1,1.778-.03.728.728,0,0,1,.532.414q.47.947.933,1.9c.393.8.78,1.613,1.18,2.414.139.279.361.278.52,0,.1-.177.164-.375.25-.56.544-1.165,1.2-2.274,1.689-3.467a1.529,1.529,0,0,1,.354-.5.55.55,0,0,1,.417-.183c.475.008.951-.008,1.425.006.453.013.626.335.438.73-.485,1.019-1.054,1.994-1.552,3.007-.261.53-.593,1.032-.853,1.567-.314.647-.719,1.242-.992,1.917a3.024,3.024,0,0,0-.217,1.184q0,1.639,0,3.279c0,.525-.248.764-.783.768-.38,0-.76.009-1.14,0a.682.682,0,0,1-.734-.744c-.01-.649,0-1.3,0-1.949" transform="translate(-187.999 -0.665)" fill="#fff"/>
      <path id="Pfad_3585" data-name="Pfad 3585" d="M127.4,215.625c-.053-1.621.091-3.6-.094-5.574a1.683,1.683,0,0,0-.873-1.378c-1.437-.828-2.884-1.638-4.329-2.452-.892-.5-1.8-.971-2.676-1.5-.743-.451-1.516-.848-2.261-1.295a1.692,1.692,0,0,0-1.839.07c-.641.37-1.269.762-1.908,1.136-1.731,1.012-3.475,2-5.191,3.039a1.053,1.053,0,0,1-1.228-.012c-1.083-.675-2.2-1.29-3.311-1.917-1.4-.791-2.794-1.6-4.2-2.376a1.429,1.429,0,0,0-1.451,0c-1.45.825-2.89,1.668-4.331,2.508q-1.637.955-3.267,1.923a.583.583,0,0,1-.586.04c-.143-.069-.283-.141-.421-.219-.645-.365-1.288-.735-1.933-1.1-.825-.465-1.653-.924-2.476-1.391-1.028-.583-2.05-1.176-3.08-1.754a1.483,1.483,0,0,0-1.57.05c-.612.362-1.219.733-1.843,1.073-1.234.671-2.417,1.427-3.629,2.133-.464.27-.933.534-1.391.813a.653.653,0,0,1-.752-.02c-.524-.321-1.057-.626-1.59-.93q-2-1.145-4.014-2.283c-.958-.545-1.911-1.1-2.88-1.627a1.325,1.325,0,0,0-1.274,0c-.253.128-.491.286-.736.43-1.214.709-2.434,1.407-3.639,2.131-.578.347-1.174.663-1.739,1.033-.512.335-1.062.613-1.6.913a.6.6,0,0,1-.705-.036,8.159,8.159,0,0,0-.9-.516c-1.115-.589-2.188-1.25-3.286-1.869-1.194-.673-2.369-1.38-3.591-2.005a1.548,1.548,0,0,0-1.609.063q-1.918,1.126-3.838,2.246c-1.157.676-2.32,1.343-3.471,2.03a.844.844,0,0,1-.967,0c-.836-.5-1.688-.975-2.535-1.458q-1.764-1-3.53-2c-.492-.279-.99-.547-1.477-.834a1.491,1.491,0,0,0-1.52-.077c-1.1.558-2.1,1.283-3.194,1.847-.759.39-1.444.907-2.2,1.306a20.66,20.66,0,0,0-1.875,1.1,1.042,1.042,0,0,1-1.256.085c-1.126-.664-2.276-1.287-3.4-1.949-1.331-.781-2.681-1.532-4.02-2.3a1.536,1.536,0,0,0-1.4-.169,4.282,4.282,0,0,0-.557.265q-2.127,1.237-4.249,2.483c-1.472.862-2.933,1.743-4.427,2.569a8.212,8.212,0,0,0-.8.5.9.9,0,0,0-.465.732c0,1.046-.008,2.092,0,3.137a.957.957,0,0,0,.589.807.7.7,0,0,0,.827-.172,1.706,1.706,0,0,1,.353-.236c.9-.522,1.789-1.051,2.691-1.563.8-.455,1.576-.96,2.384-1.408.99-.549,1.955-1.141,2.926-1.722a2.686,2.686,0,0,1,1.2-.373,2.643,2.643,0,0,1,1.536.515q1.44.818,2.877,1.641c.9.516,1.8,1.043,2.716,1.541a5.767,5.767,0,0,0,1.533.729.9.9,0,0,0,.508.011,4.645,4.645,0,0,0,1.076-.469c.509-.341,1.044-.645,1.579-.944,1.428-.8,2.841-1.62,4.227-2.491a2.474,2.474,0,0,1,2.8-.153c1.419.848,2.869,1.644,4.306,2.463.794.453,1.582.918,2.383,1.36a1.879,1.879,0,0,0,1.89-.009c.565-.305,1.116-.638,1.668-.967.581-.346,1.149-.713,1.733-1.053q1.671-.974,3.355-1.925a1.892,1.892,0,0,1,1.893-.03c.7.365,1.376.769,2.061,1.161.863.493,1.721.994,2.585,1.484.81.459,1.635.89,2.436,1.364a1.737,1.737,0,0,0,1.883-.055c.9-.545,1.814-1.073,2.719-1.611.635-.378,1.259-.777,1.9-1.142.613-.349,1.228-.694,1.827-1.067a2.146,2.146,0,0,1,2.316-.048c.521.285,1.038.576,1.56.857.679.365,1.333.773,2.011,1.14.508.274,1,.606,1.508.88a.665.665,0,0,1,.406.7c-.023,1.251.014,2.5-.015,3.755-.044,1.915.173,3.825.1,5.739a1.712,1.712,0,0,0,1,1.606c.607.33,1.216.666,1.816,1.008,1.851,1.055,3.68,2.148,5.561,3.15a.444.444,0,0,1,.28.442c-.023,1.107.056,2.211.08,3.317.041,1.885.006,3.771.014,5.657a1.7,1.7,0,0,0,.906,1.558c1.4.8,2.774,1.637,4.184,2.414,1.684.928,3.349,1.889,5.01,2.855a1.652,1.652,0,0,0,1.833,0c1.067-.669,2.176-1.265,3.263-1.9,1.359-.8,2.7-1.619,4.072-2.4a.748.748,0,0,1,.866.009c.785.468,1.581.917,2.377,1.367.644.364,1.3.7,1.938,1.081q1.652.977,3.33,1.907a1.6,1.6,0,0,0,1.7-.057c1.5-.868,3-1.734,4.5-2.615,1.265-.746,2.507-1.529,3.8-2.226.25-.135.49-.289.726-.448a2.147,2.147,0,0,0,1.066-1.976c-.077-2.134.087-4.272-.1-6.406-.049-.566.021-1.142-.017-1.71a.782.782,0,0,1,.483-.815c.99-.552,1.952-1.152,2.936-1.714,1.533-.875,3.042-1.793,4.555-2.7a1.658,1.658,0,0,0,.88-1.515c-.012-1.616,0-3.232,0-5.2m-46.919,7.063c-1.13-.6-2.238-1.239-3.348-1.873-.438-.25-.867-.523-1.324-.733a1.773,1.773,0,0,1-1.07-1.7c-.031-1.917-.028-3.835,0-5.752a1.492,1.492,0,0,1,.89-1.38,17.242,17.242,0,0,0,1.667-.979c.959-.63,2-1.11,2.949-1.764a1.221,1.221,0,0,1,.579-.176,2.8,2.8,0,0,1,1.958.506c.568.394,1.2.689,1.81,1.029.8.448,1.611.872,2.39,1.352a1.815,1.815,0,0,1,.862,1.639q0,1.4,0,2.8h0c0,.871-.009,1.743,0,2.615a1.793,1.793,0,0,1-.86,1.584c-.483.336-1.017.577-1.513.887-.655.411-1.336.777-1.981,1.207a8.968,8.968,0,0,1-1.457.784,1.734,1.734,0,0,1-1.554-.05M95.9,234.963c-.883.555-1.778,1.09-2.676,1.621-.708.418-1.439.8-2.139,1.228a1.794,1.794,0,0,1-1.85.07c-.649-.325-1.279-.691-1.911-1.05-1.016-.578-2.031-1.157-3.037-1.752a1.315,1.315,0,0,1-.7-1.163c.028-1.282-.155-2.556-.111-3.838.023-.665-.006-1.331.008-2a1.73,1.73,0,0,1,.374-1.183,1.531,1.531,0,0,1,.359-.3c.59-.362,1.2-.685,1.781-1.066.96-.634,2-1.132,2.971-1.747a2.043,2.043,0,0,1,2.2.058c.738.426,1.473.859,2.209,1.286s1.492.874,2.252,1.288a1.739,1.739,0,0,1,.958,1.667c-.007.951,0,1.9,0,2.852,0,.919-.012,1.838,0,2.757a1.382,1.382,0,0,1-.691,1.265m2.1-12.294c-1-.541-1.991-1.1-2.982-1.655-.645-.363-1.3-.715-1.919-1.117a1.529,1.529,0,0,1-.8-1.411c.036-.949.009-1.9.009-2.851,0-.966.011-1.933,0-2.9a1.624,1.624,0,0,1,.884-1.5c.62-.372,1.247-.736,1.877-1.087a21.854,21.854,0,0,1,2.08-1.183,1.963,1.963,0,0,0,.338-.255,2.565,2.565,0,0,1,1.814-.363,2,2,0,0,1,.858.385c1,.632,2.044,1.173,3.066,1.758.466.266.942.517,1.395.8a1.38,1.38,0,0,1,.7,1.22c-.053,1.883.134,3.761.1,5.643,0,.174-.041.345-.057.514a1.7,1.7,0,0,1-.994,1.3c-.9.543-1.829,1.049-2.726,1.6-.644.4-1.3.783-1.971,1.134a1.718,1.718,0,0,1-1.68-.042m16.16,9.724q0,.5,0,1a1.851,1.851,0,0,1-.9,1.674c-.739.457-1.482.908-2.234,1.341-.712.41-1.431.807-2.124,1.25a2.126,2.126,0,0,1-2.443.049c-1.022-.621-2.086-1.171-3.129-1.758-.482-.271-.954-.557-1.437-.827a1.685,1.685,0,0,1-.821-1.558c-.019-.966-.005-1.932-.005-2.9h0c0-.95.012-1.9,0-2.851a1.362,1.362,0,0,1,.558-1.094,13.674,13.674,0,0,1,1.56-.97c1.043-.672,2.162-1.217,3.209-1.885a2.076,2.076,0,0,1,2.317-.008c1.465.867,2.94,1.72,4.438,2.527a1.926,1.926,0,0,1,1.023,1.875c.01,1.378,0,2.756,0,4.133m8.755-16.725h-.006c0,.934,0,1.868,0,2.8a1.5,1.5,0,0,1-.792,1.364c-1.262.749-2.542,1.469-3.8,2.227-.256.154-.528.289-.768.465a2.105,2.105,0,0,1-1.444.341,1.716,1.716,0,0,1-.6-.252c-.892-.4-1.706-.945-2.566-1.406-.764-.41-1.5-.873-2.255-1.3a1.458,1.458,0,0,1-.784-1.445c.066-1.754-.157-3.5-.1-5.259a5.281,5.281,0,0,1,.1-1.031.457.457,0,0,1,.106-.256,4.953,4.953,0,0,1,1.085-.9c.82-.432,1.606-.927,2.414-1.38.6-.338,1.173-.73,1.775-1.064a1.979,1.979,0,0,1,1.906-.074c.857.433,1.682.929,2.52,1.4.7.394,1.4.8,2.1,1.185a1.909,1.909,0,0,1,1.107,1.83c-.02.918,0,1.836,0,2.755" transform="translate(-0.006 -157.84)" fill="#fff"/>
      <path id="Pfad_3586" data-name="Pfad 3586" d="M20.246,65.282a6.157,6.157,0,0,0-1.394-2.847A6.976,6.976,0,0,0,16.1,60.569c-.139-.054-.311-.084-.318-.3a.479.479,0,0,1,.226-.469,7.4,7.4,0,0,0,2.032-2.083,5.958,5.958,0,0,0,.97-3.19,11.41,11.41,0,0,0-.077-1.221,5.7,5.7,0,0,0-.97-2.673,6.183,6.183,0,0,0-2.774-2.272,11.2,11.2,0,0,0-4.069-.887c-3.309-.053-6.62-.02-9.93-.018A1.114,1.114,0,0,0,0,48.672q0,6.3,0,12.593H0Q0,67.61,0,73.954a1.243,1.243,0,0,0,1.282,1.271c1.837,0,3.675.02,5.511-.006,1.452-.02,2.9.042,4.358-.063a20.024,20.024,0,0,0,2.773-.453,8.662,8.662,0,0,0,2.731-1.082,7.455,7.455,0,0,0,3.129-3.529,6.3,6.3,0,0,0,.536-1.976,10.2,10.2,0,0,0-.076-2.832M5.9,52.852A.911.911,0,0,1,6.92,51.837c1.029,0,2.061-.049,3.086.013a3.031,3.031,0,0,1,2.6,1.366,2.578,2.578,0,0,1,.416,1.377c0,.269-.01.539,0,.807a3.1,3.1,0,0,1-2.116,2.94,6.563,6.563,0,0,1-2.08.34c-.617,0-1.235,0-1.852,0A.971.971,0,0,1,5.9,57.6c0-.792,0-1.583,0-2.375s0-1.584,0-2.375m8.268,14.458a3.093,3.093,0,0,1-1.089,2.423,4.2,4.2,0,0,1-2.186.925c-1.273.179-2.555.052-3.831.105A1.091,1.091,0,0,1,5.888,69.6c.037-.932.009-1.868.009-2.8,0-.95,0-1.9,0-2.85a.886.886,0,0,1,.94-.985c1.314-.009,2.632-.068,3.939.022a3.653,3.653,0,0,1,2.657,1.249,2.835,2.835,0,0,1,.733,1.891c-.01.4,0,.792,0,1.187" transform="translate(0 -36.998)" fill="#fff"/>
      <path id="Pfad_3587" data-name="Pfad 3587" d="M311.822,64.659a5.989,5.989,0,0,0-.52-1.208,7.016,7.016,0,0,0-3.436-2.838c-.141-.05-.307-.1-.3-.309a.468.468,0,0,1,.2-.437,7.463,7.463,0,0,0,2.127-2.244,5.036,5.036,0,0,0,.81-2.7c-.006-.333-.015-.666,0-1a5.29,5.29,0,0,0-.623-2.626,6.063,6.063,0,0,0-3.517-3.037,10.216,10.216,0,0,0-2.035-.546,13.334,13.334,0,0,0-1.916-.2h-9.6a1.089,1.089,0,0,0-1.23,1.215q0,6.321,0,12.643v1.141q0,5.775-.005,11.55a1.021,1.021,0,0,0,.355.881,1.392,1.392,0,0,0,.9.338c3.042-.008,6.083,0,9.124-.011a13.06,13.06,0,0,0,1.456-.109,15.022,15.022,0,0,0,2.461-.532,9.045,9.045,0,0,0,4.072-2.327,7.173,7.173,0,0,0,1.947-4.28,6.777,6.777,0,0,0-.273-3.359m-14.145-9.4c0-.792,0-1.585,0-2.377a.894.894,0,0,1,.989-.995c1.014,0,2.03-.034,3.042.01a3.41,3.41,0,0,1,2.385.969,1.742,1.742,0,0,1,.384.59,3.991,3.991,0,0,1-.247,3.793,3.24,3.24,0,0,1-1.979,1.28,5.445,5.445,0,0,1-1.725.208c-.633-.024-1.267,0-1.9-.007a.9.9,0,0,1-.947-.952c-.006-.84,0-1.68,0-2.52m7.722,13.9a3.054,3.054,0,0,1-1.725,1.257,5.979,5.979,0,0,1-2.259.393c-.871-.015-1.742-.009-2.613,0a1.314,1.314,0,0,1-.673-.175.8.8,0,0,1-.454-.765c.006-1.014,0-2.028,0-3.041,0-.966,0-1.932,0-2.9,0-.645.257-.914.914-.919,1.33-.01,2.664-.06,3.989.02a3.636,3.636,0,0,1,2.331,1.009,3.335,3.335,0,0,1,.961,1.593,1.788,1.788,0,0,1,.074.461c0,.4-.014.793,0,1.188a3.488,3.488,0,0,1-.551,1.877" transform="translate(-227.516 -37.046)" fill="#fff"/>
      <path id="Pfad_3588" data-name="Pfad 3588" d="M417.683,84.577a12.189,12.189,0,0,0-.124-1.459,11.773,11.773,0,0,0-.559-2.51,9.08,9.08,0,0,0-1.228-2.49,7.706,7.706,0,0,0-3.438-2.716,10.853,10.853,0,0,0-3.57-.731,10.646,10.646,0,0,0-2.994.294,10.025,10.025,0,0,0-3.294,1.5,14.172,14.172,0,0,0-1.384,1.295,6.994,6.994,0,0,0-1.381,1.909,12.2,12.2,0,0,0-.95,2.661c-.118.438-.17.89-.27,1.334a11.6,11.6,0,0,0-.11,2.427,18.437,18.437,0,0,0,.08,1.873c.1.631.2,1.266.31,1.9a9.565,9.565,0,0,0,.439,1.437,8.284,8.284,0,0,0,2.859,4.07,7.955,7.955,0,0,0,4.255,1.623,10.425,10.425,0,0,0,4.254-.341,12.777,12.777,0,0,0,2.315-1.015,11.627,11.627,0,0,0,1.865-1.591,6.959,6.959,0,0,0,1.357-1.857,13.812,13.812,0,0,0,1.471-4.865,21.522,21.522,0,0,0,.1-2.743m-5.909,2.539a12.515,12.515,0,0,1-.3,2.283,7.308,7.308,0,0,1-.69,1.853,2.981,2.981,0,0,1-1.4,1.366,2.105,2.105,0,0,1-.911.215c-.238,0-.476-.012-.713,0a2.646,2.646,0,0,1-2.609-1.61,6.893,6.893,0,0,1-.722-2.32c-.086-.585-.153-1.178-.233-1.764a12.661,12.661,0,0,1-.017-1.709h-.006c0-.444-.024-.889,0-1.331a7.672,7.672,0,0,1,1.158-4,2.592,2.592,0,0,1,2.2-1.245c.285,0,.57.008.855,0a2.426,2.426,0,0,1,2.214,1.2,6.477,6.477,0,0,1,.894,2.356,21.5,21.5,0,0,1,.265,4.708" transform="translate(-310.636 -58.219)" fill="#fff"/>
      <path id="Pfad_3589" data-name="Pfad 3589" d="M212.357,94.245c-.112-.224-.226-.448-.319-.683-.226-.569-.462-1.135-.734-1.682-.331-.668-.606-.761-1.241-.4a10.145,10.145,0,0,1-2.3.951,11.72,11.72,0,0,1-3.435.139c-.014,0-.029-.013-.044-.017a5.558,5.558,0,0,1-1.692-.8,4.09,4.09,0,0,1-1.451-2.1,2.464,2.464,0,0,1-.019-.9.26.26,0,0,1,.154-.223,1.376,1.376,0,0,1,.661-.218,13.211,13.211,0,0,0,2.66-.268,13.959,13.959,0,0,0,4.32-1.484A7.246,7.246,0,0,0,211.2,84.48a6,6,0,0,0,1.04-2.636,6.327,6.327,0,0,0-.042-2.622,5.578,5.578,0,0,0-2.545-3.548,7.229,7.229,0,0,0-3.285-1.025,10.617,10.617,0,0,0-3.012.16,10.85,10.85,0,0,0-3.232,1.276,10.632,10.632,0,0,0-1.94,1.656,8.724,8.724,0,0,0-1.647,2.3,12.654,12.654,0,0,0-1.007,2.636,18.788,18.788,0,0,0-.49,2.962,11.328,11.328,0,0,0,.1,2.549,8.19,8.19,0,0,0,.093.84,17.482,17.482,0,0,0,.815,2.735,8.148,8.148,0,0,0,2.865,3.607,8.854,8.854,0,0,0,3,1.319,7.977,7.977,0,0,0,2.467.291c.174-.011.348,0,.523,0a10.477,10.477,0,0,0,3.621-.454,17.7,17.7,0,0,0,2.62-.993,3.324,3.324,0,0,0,1.145-.815.374.374,0,0,0,.072-.468M200.728,83.711a5,5,0,0,1,.447-2.142,4.864,4.864,0,0,1,1.349-2.011,3.49,3.49,0,0,1,2.1-.922,2.987,2.987,0,0,1,1.751.252,1.617,1.617,0,0,1,.91,1.481c0,.111,0,.222,0,.333a2.894,2.894,0,0,1-1.864,2.792,9.744,9.744,0,0,1-2.237.709,7.606,7.606,0,0,1-1.882.125.61.61,0,0,1-.579-.617" transform="translate(-152.055 -58.178)" fill="#fff"/>
      <path id="Pfad_3590" data-name="Pfad 3590" d="M124.25,94.368c-.356-.854-.708-1.711-1.087-2.555a.688.688,0,0,0-1.084-.344,7.579,7.579,0,0,1-4.061,1.206,8.792,8.792,0,0,1-1.658-.04,4.091,4.091,0,0,1-2.7-1.659,2.929,2.929,0,0,1-.685-1.766.768.768,0,0,1,.812-.824,8.3,8.3,0,0,0,1.506-.085c.639-.139,1.3-.181,1.934-.336a16.122,16.122,0,0,0,2.058-.612,10.486,10.486,0,0,0,2.27-1.208,6.2,6.2,0,0,0,1.818-2.015,5.526,5.526,0,0,0,.8-2.426,7.589,7.589,0,0,0-.235-2.9,5.365,5.365,0,0,0-1.7-2.608,7.253,7.253,0,0,0-4.23-1.5,13.08,13.08,0,0,0-1.983.06,11.645,11.645,0,0,0-1.831.4,8.533,8.533,0,0,0-2.471,1.16,12.374,12.374,0,0,0-1.7,1.506,8.044,8.044,0,0,0-1.458,2.026,12.335,12.335,0,0,0-1.28,3.433,10.145,10.145,0,0,0-.3,2.471c.011.237,0,.475,0,.713a11.289,11.289,0,0,0,.113,2.406,11.9,11.9,0,0,0,.75,2.752,8.869,8.869,0,0,0,1.812,2.847,8.313,8.313,0,0,0,2.362,1.626,9.5,9.5,0,0,0,3.945.931c.7.017,1.393,0,2.09,0a1.509,1.509,0,0,0,.331-.01,24.151,24.151,0,0,0,2.365-.541A16.741,16.741,0,0,0,123.4,95.4c.177-.1.355-.2.524-.313a.66.66,0,0,0,.329-.715M112.6,83.817a3.62,3.62,0,0,1,.234-1.569,6.931,6.931,0,0,1,.97-1.968,3.843,3.843,0,0,1,3-1.593,2.485,2.485,0,0,1,1.7.41,1.481,1.481,0,0,1,.652,1.244,5.341,5.341,0,0,1-.061,1.366,2.883,2.883,0,0,1-1.594,1.775,9.325,9.325,0,0,1-2.637.825,5.893,5.893,0,0,1-.979.085c-.305,0-.512.009-.717,0a.6.6,0,0,1-.571-.572" transform="translate(-83.412 -58.241)" fill="#fff"/>
      <path id="Pfad_3591" data-name="Pfad 3591" d="M150.52,13.138a14.045,14.045,0,0,1-.532-1.56c-.705-1.967-1.409-3.935-2.1-5.908-.455-1.306-.881-2.621-1.376-3.913-.139-.362-.239-.44-.624-.445-.317,0-.633,0-.95,0-.3,0-.6,0-.9,0a.683.683,0,0,0-.8.566c-.181.521-.356,1.043-.531,1.566-.378,1.134-.752,2.269-1.132,3.4-.455,1.355-.917,2.708-1.374,4.063q-.348,1.029-.69,2.06a.6.6,0,0,0,.557.795c.332.016.667-.021,1,.01a.774.774,0,0,0,.767-.445,1.845,1.845,0,0,0,.15-.395c.2-.593.4-1.188.608-1.78.134-.386.183-.425.57-.427q1.71-.007,3.421,0c.393,0,.467.083.586.471.212.691.437,1.379.666,2.065a.63.63,0,0,0,.52.493c.568.032,1.14.026,1.709,0,.3-.013.566-.4.457-.62m-4.544-4.42c-.758.01-1.517,0-2.276,0-.233,0-.322-.093-.341-.34a2.378,2.378,0,0,1,.25-.948c.4-1.2.713-2.423,1.17-3.619a.6.6,0,0,1,.381.5c.322,1.261.73,2.5,1.09,3.747a1.3,1.3,0,0,1,.061.274c.018.3-.041.382-.334.386" transform="translate(-108.76 -1.022)" fill="#fff"/>
    </g>
  </g>
</svg>
