<svg xmlns="http://www.w3.org/2000/svg" xmlns:xlink="http://www.w3.org/1999/xlink" width="210.347" height="78.951" viewBox="0 0 210.347 78.951">
  <defs>
    <clipPath id="clip-path">
      <rect id="Rechteck_126" data-name="Rechteck 126" width="210.347" height="78.952" fill="none"/>
    </clipPath>
  </defs>
  <g id="gratis-bergbahnen-logo-white" transform="translate(0 0)">
    <g id="Gruppe_1416" data-name="Gruppe 1416" transform="translate(0 0)" clip-path="url(#clip-path)">
      <path id="Pfad_3611" data-name="Pfad 3611" d="M175.5,38.417a19.667,19.667,0,0,0-3.05-3.343H145.441a19.641,19.641,0,0,0-3.05,3.343,20.088,20.088,0,0,0,.067,23.681h32.973a20.088,20.088,0,0,0,.067-23.681M157.522,58.434a.293.293,0,0,1-.293.293h-1.2a.293.293,0,0,1-.293-.293V54.625a.294.294,0,0,1,.293-.293h1.2a.293.293,0,0,1,.293.293Zm0-6.537H143.15V50.276a19.943,19.943,0,0,1,3.827-11.79,1.28,1.28,0,0,1,.1-.125h10.445Zm4.634,6.537a.293.293,0,0,1-.293.293h-1.2a.293.293,0,0,1-.293-.293V54.625a.293.293,0,0,1,.293-.293h1.2a.293.293,0,0,1,.293.293ZM174.739,51.9H160.367V38.36h10.445a1.276,1.276,0,0,1,.1.125,19.948,19.948,0,0,1,3.827,11.79Z" transform="translate(-53.363 -13.507)" fill="#fff"/>
      <path id="Pfad_3612" data-name="Pfad 3612" d="M177.24,79.023H143.516a1.23,1.23,0,0,0-1.23,1.23v.883a1.23,1.23,0,0,0,1.23,1.23H177.24a1.23,1.23,0,0,0,1.23-1.23v-.883a1.229,1.229,0,0,0-1.23-1.23" transform="translate(-54.796 -30.433)" fill="#fff"/>
      <path id="Pfad_3613" data-name="Pfad 3613" d="M173.375,29.638H162.092a.707.707,0,0,0-.707.707v2.635h12.7V30.345a.707.707,0,0,0-.707-.707" transform="translate(-62.151 -11.414)" fill="#fff"/>
      <path id="Pfad_3614" data-name="Pfad 3614" d="M172.334,21.794V10.5a1.229,1.229,0,0,0-1.23-1.23h-.883a1.23,1.23,0,0,0-1.23,1.23V21.794Z" transform="translate(-65.081 -3.57)" fill="#fff"/>
      <path id="Pfad_3615" data-name="Pfad 3615" d="M210.347,2.147,0,22.211V19.585l215.395-20.6c1.236.424-.67.507,0,1.6" transform="translate(0 0.202)" fill="#fff"/>
      <path id="Pfad_3616" data-name="Pfad 3616" d="M32.647,108.3h2.2v7.555a5,5,0,0,1-.9,3.291,4.5,4.5,0,0,1-3.64,1.427,6.367,6.367,0,0,1-2.18-.325,3.8,3.8,0,0,1-2.391-2.48h2.44a2.011,2.011,0,0,0,.835.563,3.46,3.46,0,0,0,1.208.191,3.193,3.193,0,0,0,1.435-.275,1.67,1.67,0,0,0,.766-.714,3.62,3.62,0,0,0,.223-1.508,3.675,3.675,0,0,1-1.224.84,3.9,3.9,0,0,1-1.451.255,3.992,3.992,0,0,1-3-1.281,4.971,4.971,0,0,1,.073-6.615,3.87,3.87,0,0,1,2.805-1.151,3.722,3.722,0,0,1,1.439.28,4.551,4.551,0,0,1,1.358.92Zm-2.294,1.84a2.3,2.3,0,0,0-1.727.7,2.428,2.428,0,0,0-.681,1.763,2.462,2.462,0,0,0,.7,1.808,2.36,2.36,0,0,0,1.751.705,2.265,2.265,0,0,0,1.7-.689,2.487,2.487,0,0,0,.669-1.808,2.454,2.454,0,0,0-.673-1.791,2.318,2.318,0,0,0-1.735-.689" transform="translate(-9.913 -41.62)" fill="#fff"/>
      <path id="Pfad_3617" data-name="Pfad 3617" d="M43.354,108.3h1.9v1.11a2.367,2.367,0,0,1,.819-1,1.97,1.97,0,0,1,1.118-.341,2.07,2.07,0,0,1,.9.227l-.689,1.9a1.523,1.523,0,0,0-.641-.195,1.014,1.014,0,0,0-.863.633,5.788,5.788,0,0,0-.352,2.48l.008.43v3.567h-2.2Z" transform="translate(-16.696 -41.62)" fill="#fff"/>
      <path id="Pfad_3618" data-name="Pfad 3618" d="M59.089,108.3H61.3v8.82H59.089v-.933a4.35,4.35,0,0,1-1.3.888,3.641,3.641,0,0,1-1.412.272,3.926,3.926,0,0,1-2.956-1.326,4.623,4.623,0,0,1-1.247-3.3,4.738,4.738,0,0,1,1.206-3.348,3.844,3.844,0,0,1,2.931-1.3,3.728,3.728,0,0,1,1.49.3,4.069,4.069,0,0,1,1.288.9Zm-2.327,1.816a2.236,2.236,0,0,0-1.7.726,2.614,2.614,0,0,0-.679,1.86,2.646,2.646,0,0,0,.691,1.881,2.24,2.24,0,0,0,1.7.738,2.281,2.281,0,0,0,1.729-.726,2.654,2.654,0,0,0,.687-1.9,2.578,2.578,0,0,0-.687-1.864,2.309,2.309,0,0,0-1.737-.713" transform="translate(-20.093 -41.62)" fill="#fff"/>
      <path id="Pfad_3619" data-name="Pfad 3619" d="M70.382,103.153h2.213V106.4h1.313v1.9H72.595v6.915H70.382v-6.915H69.247v-1.9h1.135Z" transform="translate(-26.668 -39.726)" fill="#fff"/>
      <path id="Pfad_3620" data-name="Pfad 3620" d="M79.276,102.534a1.354,1.354,0,0,1,1,.421,1.4,1.4,0,0,1,.416,1.021,1.385,1.385,0,0,1-.413,1.01,1.338,1.338,0,0,1-.986.418,1.355,1.355,0,0,1-1.007-.426,1.42,1.42,0,0,1-.416-1.033,1.409,1.409,0,0,1,1.407-1.411m-1.107,3.632h2.213v8.82H78.169Z" transform="translate(-29.988 -39.487)" fill="#fff"/>
      <path id="Pfad_3621" data-name="Pfad 3621" d="M90.188,109.53l-1.371,1.37a2.315,2.315,0,0,0-1.515-.827.953.953,0,0,0-.584.159.474.474,0,0,0-.21.392.482.482,0,0,0,.133.328,2.464,2.464,0,0,0,.661.41l.81.406a4.773,4.773,0,0,1,1.759,1.288,2.684,2.684,0,0,1-.386,3.5,3.3,3.3,0,0,1-2.314.786,3.678,3.678,0,0,1-3.081-1.508l1.362-1.484a3.145,3.145,0,0,0,.912.734,2.013,2.013,0,0,0,.928.28,1.1,1.1,0,0,0,.705-.211.61.61,0,0,0,.267-.486q0-.51-.964-1l-.746-.373q-2.141-1.078-2.14-2.7a2.344,2.344,0,0,1,.807-1.787,2.93,2.93,0,0,1,2.063-.742,3.58,3.58,0,0,1,2.9,1.459" transform="translate(-32.385 -41.62)" fill="#fff"/>
      <rect id="Rechteck_125" data-name="Rechteck 125" width="4.118" height="2.059" transform="translate(60.016 70.074)" fill="#fff"/>
      <path id="Pfad_3622" data-name="Pfad 3622" d="M110.64,102.9v4.377a4.146,4.146,0,0,1,1.3-.9,3.733,3.733,0,0,1,1.492-.3,3.849,3.849,0,0,1,2.934,1.3,4.734,4.734,0,0,1,1.208,3.348,4.619,4.619,0,0,1-1.248,3.3,3.933,3.933,0,0,1-2.959,1.326,3.678,3.678,0,0,1-1.419-.272,4.322,4.322,0,0,1-1.3-.888v.933h-2.2V102.9Zm2.326,5.22a2.311,2.311,0,0,0-1.735.713,2.571,2.571,0,0,0-.689,1.864,2.647,2.647,0,0,0,.689,1.9,2.292,2.292,0,0,0,1.735.726,2.251,2.251,0,0,0,1.706-.738,2.639,2.639,0,0,0,.693-1.881,2.61,2.61,0,0,0-.681-1.86,2.257,2.257,0,0,0-1.719-.726" transform="translate(-41.763 -39.629)" fill="#fff"/>
      <path id="Pfad_3623" data-name="Pfad 3623" d="M134.844,113.348h-7.11a2.365,2.365,0,0,0,.823,1.5,2.58,2.58,0,0,0,1.706.555,2.952,2.952,0,0,0,2.132-.868l1.864.876a4.4,4.4,0,0,1-1.669,1.463,5.226,5.226,0,0,1-2.31.474,4.567,4.567,0,0,1-3.381-1.309,4.456,4.456,0,0,1-1.305-3.279,4.606,4.606,0,0,1,1.3-3.352,4.37,4.37,0,0,1,3.263-1.334,4.531,4.531,0,0,1,3.389,1.334,4.817,4.817,0,0,1,1.305,3.521Zm-2.214-1.743a2.217,2.217,0,0,0-.865-1.2,2.508,2.508,0,0,0-1.5-.462,2.645,2.645,0,0,0-1.623.519,2.891,2.891,0,0,0-.813,1.143Z" transform="translate(-48.368 -41.62)" fill="#fff"/>
      <path id="Pfad_3624" data-name="Pfad 3624" d="M142.706,108.3h1.9v1.11a2.363,2.363,0,0,1,.819-1,1.97,1.97,0,0,1,1.118-.341,2.072,2.072,0,0,1,.9.227l-.689,1.9a1.523,1.523,0,0,0-.641-.195,1.014,1.014,0,0,0-.863.633,5.788,5.788,0,0,0-.352,2.48l.008.43v3.567h-2.2Z" transform="translate(-54.958 -41.62)" fill="#fff"/>
      <path id="Pfad_3625" data-name="Pfad 3625" d="M158.457,108.3h2.2v7.555a5,5,0,0,1-.9,3.291,4.5,4.5,0,0,1-3.639,1.427,6.366,6.366,0,0,1-2.181-.325,3.8,3.8,0,0,1-2.392-2.48h2.44a2.007,2.007,0,0,0,.835.563,3.458,3.458,0,0,0,1.207.191,3.189,3.189,0,0,0,1.435-.275,1.661,1.661,0,0,0,.766-.714,3.62,3.62,0,0,0,.223-1.508,3.657,3.657,0,0,1-1.224.84,3.9,3.9,0,0,1-1.45.255,3.99,3.99,0,0,1-3-1.281,4.97,4.97,0,0,1,.073-6.615,3.872,3.872,0,0,1,2.806-1.151,3.727,3.727,0,0,1,1.439.28,4.541,4.541,0,0,1,1.357.92Zm-2.294,1.84a2.308,2.308,0,0,0-1.727.7,2.43,2.43,0,0,0-.681,1.763,2.465,2.465,0,0,0,.7,1.808,2.36,2.36,0,0,0,1.751.705,2.263,2.263,0,0,0,1.7-.689,2.485,2.485,0,0,0,.669-1.808,2.454,2.454,0,0,0-.673-1.791,2.319,2.319,0,0,0-1.735-.689" transform="translate(-58.364 -41.62)" fill="#fff"/>
      <path id="Pfad_3626" data-name="Pfad 3626" d="M172.206,102.9v4.377a4.146,4.146,0,0,1,1.3-.9,3.733,3.733,0,0,1,1.492-.3,3.849,3.849,0,0,1,2.934,1.3,4.734,4.734,0,0,1,1.208,3.348,4.619,4.619,0,0,1-1.248,3.3,3.933,3.933,0,0,1-2.959,1.326,3.678,3.678,0,0,1-1.419-.272,4.322,4.322,0,0,1-1.3-.888v.933h-2.2V102.9Zm2.326,5.22a2.311,2.311,0,0,0-1.735.713,2.571,2.571,0,0,0-.689,1.864,2.647,2.647,0,0,0,.689,1.9,2.292,2.292,0,0,0,1.735.726,2.251,2.251,0,0,0,1.706-.738,2.639,2.639,0,0,0,.693-1.881,2.61,2.61,0,0,0-.681-1.86,2.257,2.257,0,0,0-1.719-.726" transform="translate(-65.473 -39.629)" fill="#fff"/>
      <path id="Pfad_3627" data-name="Pfad 3627" d="M194.088,108.3H196.3v8.82h-2.213v-.933a4.35,4.35,0,0,1-1.3.888,3.641,3.641,0,0,1-1.413.272,3.929,3.929,0,0,1-2.956-1.326,4.625,4.625,0,0,1-1.246-3.3,4.738,4.738,0,0,1,1.206-3.348,3.845,3.845,0,0,1,2.931-1.3,3.723,3.723,0,0,1,1.489.3,4.072,4.072,0,0,1,1.288.9Zm-2.327,1.816a2.237,2.237,0,0,0-1.7.726,2.614,2.614,0,0,0-.679,1.86,2.643,2.643,0,0,0,.691,1.881,2.24,2.24,0,0,0,1.7.738,2.281,2.281,0,0,0,1.729-.726,2.654,2.654,0,0,0,.687-1.9,2.578,2.578,0,0,0-.687-1.864,2.31,2.31,0,0,0-1.737-.713" transform="translate(-72.083 -41.62)" fill="#fff"/>
      <path id="Pfad_3628" data-name="Pfad 3628" d="M205.67,102.9h2.2v4.3a5.05,5.05,0,0,1,1.3-.839,3.36,3.36,0,0,1,1.329-.28,2.994,2.994,0,0,1,2.214.908,3.17,3.17,0,0,1,.77,2.31v5.829H211.3v-3.867a9.556,9.556,0,0,0-.146-2.075,1.449,1.449,0,0,0-.5-.811,1.4,1.4,0,0,0-.872-.267,1.643,1.643,0,0,0-1.155.445,2.37,2.37,0,0,0-.669,1.216,10.1,10.1,0,0,0-.1,1.816v3.543h-2.2Z" transform="translate(-79.206 -39.629)" fill="#fff"/>
      <path id="Pfad_3629" data-name="Pfad 3629" d="M221.86,108.3h2.213v.9a5.289,5.289,0,0,1,1.364-.883,3.3,3.3,0,0,1,1.251-.248,3.029,3.029,0,0,1,2.226.916,3.145,3.145,0,0,1,.769,2.3v5.829h-2.188v-3.862a9.808,9.808,0,0,0-.141-2.1,1.437,1.437,0,0,0-.494-.789,1.379,1.379,0,0,0-.869-.271,1.628,1.628,0,0,0-1.152.449,2.4,2.4,0,0,0-.667,1.243,9.974,9.974,0,0,0-.1,1.789v3.539H221.86Z" transform="translate(-85.441 -41.62)" fill="#fff"/>
      <path id="Pfad_3630" data-name="Pfad 3630" d="M246.641,113.348h-7.11a2.365,2.365,0,0,0,.823,1.5,2.58,2.58,0,0,0,1.706.555,2.952,2.952,0,0,0,2.132-.868l1.864.876a4.4,4.4,0,0,1-1.669,1.463,5.226,5.226,0,0,1-2.31.474,4.567,4.567,0,0,1-3.381-1.309,4.456,4.456,0,0,1-1.305-3.279,4.606,4.606,0,0,1,1.3-3.352,4.37,4.37,0,0,1,3.263-1.334,4.532,4.532,0,0,1,3.389,1.334,4.817,4.817,0,0,1,1.305,3.521Zm-2.214-1.743a2.217,2.217,0,0,0-.865-1.2,2.508,2.508,0,0,0-1.5-.462,2.645,2.645,0,0,0-1.623.519,2.891,2.891,0,0,0-.813,1.143Z" transform="translate(-91.422 -41.62)" fill="#fff"/>
      <path id="Pfad_3631" data-name="Pfad 3631" d="M255.346,108.3h2.213v.9a5.289,5.289,0,0,1,1.364-.883,3.3,3.3,0,0,1,1.251-.248,3.029,3.029,0,0,1,2.226.916,3.145,3.145,0,0,1,.769,2.3v5.829H260.98v-3.862a9.806,9.806,0,0,0-.141-2.1,1.437,1.437,0,0,0-.494-.789,1.379,1.379,0,0,0-.869-.271,1.628,1.628,0,0,0-1.152.449,2.4,2.4,0,0,0-.667,1.243,9.977,9.977,0,0,0-.1,1.789v3.539h-2.213Z" transform="translate(-98.337 -41.62)" fill="#fff"/>
      <path id="Pfad_3632" data-name="Pfad 3632" d="M272.716,119.026a1.232,1.232,0,0,1,.9.37,1.21,1.21,0,0,1,.373.9,1.273,1.273,0,1,1-2.545,0,1.211,1.211,0,0,1,.373-.9,1.23,1.23,0,0,1,.9-.37" transform="translate(-104.537 -45.838)" fill="#fff"/>
      <path id="Pfad_3633" data-name="Pfad 3633" d="M279.1,108.3h2.213v.9a5.289,5.289,0,0,1,1.364-.883,3.3,3.3,0,0,1,1.251-.248,3.029,3.029,0,0,1,2.226.916,3.145,3.145,0,0,1,.769,2.3v5.829h-2.188v-3.862a9.812,9.812,0,0,0-.141-2.1,1.437,1.437,0,0,0-.494-.789,1.379,1.379,0,0,0-.869-.271,1.628,1.628,0,0,0-1.152.449,2.4,2.4,0,0,0-.667,1.243,9.969,9.969,0,0,0-.1,1.789v3.539H279.1Z" transform="translate(-107.486 -41.62)" fill="#fff"/>
      <path id="Pfad_3634" data-name="Pfad 3634" d="M303.883,113.348h-7.11a2.365,2.365,0,0,0,.823,1.5,2.58,2.58,0,0,0,1.706.555,2.952,2.952,0,0,0,2.132-.868l1.864.876a4.4,4.4,0,0,1-1.669,1.463,5.226,5.226,0,0,1-2.31.474,4.567,4.567,0,0,1-3.381-1.309,4.456,4.456,0,0,1-1.305-3.279,4.606,4.606,0,0,1,1.3-3.352,4.37,4.37,0,0,1,3.263-1.334,4.532,4.532,0,0,1,3.389,1.334,4.817,4.817,0,0,1,1.305,3.521Zm-2.214-1.743a2.217,2.217,0,0,0-.865-1.2,2.508,2.508,0,0,0-1.5-.462,2.645,2.645,0,0,0-1.623.519,2.891,2.891,0,0,0-.813,1.143Z" transform="translate(-113.467 -41.62)" fill="#fff"/>
      <path id="Pfad_3635" data-name="Pfad 3635" d="M312.313,103.153h2.214V106.4h1.313v1.9h-1.313v6.915h-2.214v-6.915h-1.135v-1.9h1.135Z" transform="translate(-119.839 -39.726)" fill="#fff"/>
      <line id="Linie_15" data-name="Linie 15" x1="9.332" y2="10.711" transform="translate(151.903 6.776)" fill="none" stroke="#fff" stroke-miterlimit="10" stroke-width="1"/>
      <line id="Linie_16" data-name="Linie 16" x2="10.711" y2="9.332" transform="translate(162.88 6.663)" fill="none" stroke="#fff" stroke-miterlimit="10" stroke-width="1"/>
      <path id="Pfad_3636" data-name="Pfad 3636" d="M264.623,9.041a2.113,2.113,0,1,1-2.253-1.963,2.114,2.114,0,0,1,2.253,1.963" transform="translate(-100.284 -2.724)" fill="#fff"/>
      <path id="Pfad_3637" data-name="Pfad 3637" d="M259.359,31.972l-.66.045.113,1.645.705-.049c.694-.048,1.033-.352.995-.9-.036-.526-.426-.791-1.153-.742" transform="translate(-99.628 -12.311)" fill="#fff"/>
      <path id="Pfad_3638" data-name="Pfad 3638" d="M271.216,20.992a2.742,2.742,0,0,0-2.924-2.547l-28.881,1.987a2.742,2.742,0,0,0-2.547,2.924L237.81,37.1a2.741,2.741,0,0,0,2.923,2.547l28.882-1.987a2.742,2.742,0,0,0,2.547-2.923ZM245.252,33.721l-1.488.1-.553-8.035,3.983-.274.1,1.5-2.5.172.1,1.432,2.5-.172.1,1.5-2.5.172Zm7.433-.512-2.036-3.278-.146.01.234,3.4-1.533.105-.553-8.035,1.869-.129a3.016,3.016,0,0,1,2.316.493,2.337,2.337,0,0,1,.765,1.634,2.128,2.128,0,0,1-1.4,2.244l2.148,3.439Zm2.922-.2-.553-8.035,4.387-.3.1,1.5-2.853.2.1,1.432,2.854-.2.1,1.5-2.853.2.144,2.1,2.854-.2.1,1.5Zm5.821-.4-.553-8.035,4.387-.3.1,1.5-2.854.2.1,1.433,2.854-.2.1,1.5-2.854.2.144,2.1,2.854-.2.1,1.5Z" transform="translate(-91.217 -7.101)" fill="#fff"/>
    </g>
  </g>
</svg>
