<svg xmlns="http://www.w3.org/2000/svg" width="154.47" height="138.35" viewBox="0 0 154.47 138.35"><path id="path4383" d="m69.5,62.27s.11,22.07.03,33.09c0,11.1-1.71,18.51-4.75,24.06h1.44c7.35,0,14.72.05,22.06-.03,2.14-.02,4.3-.23,6.38-.72,4.23-1,8.14-2.69,11.59-5.5,4.62-3.76,7.55-8.54,9.09-14.16,1-3.63,1.33-7.39,1.03-11.22-.29-3.79-1.16-7.33-2.75-10.78-2.46-5.35-6.47-9.16-11.59-11.75-4.01-2.03-8.35-3.01-12.91-3-6.82.09-18.65,0-19.62,0h0Zm14.16,9.45c1.33-.02,2.8.05,3.88.06.72,0,1.46.06,2.19.19.73.13,1.44.34,2.12.56.46.15.89.31,1.31.5,2.11.97,3.75,2.46,5,4.34v.03c.5.75.96,1.56,1.34,2.41.99,2.19,1.59,4.39,1.88,6.62v.03c.19,1.48.22,2.97.16,4.47-.06,1.51-.23,3.04-.5,4.56-.13.76-.29,1.52-.47,2.28-.57,2.45-1.51,4.73-2.94,6.81-.9,1.32-2,2.39-3.28,3.22-.51.33-1.05.62-1.62.88-.29.13-.57.23-.88.34-2.11.77-4.27.81-6.44.78-1,0-2.02-.02-2.75,0,.43-3.04.57-6.18.75-9.28.12-2.1.18-4.21.22-6.31.11-6.23.03-18.69.03-18.69v-3.81h0Z" fill="#fff"/><path id="path4385" d="m48.75,71.46c-7.84-.07-15.31-.41-23.28,1.54v-10.71h37.94s.12,22.05.03,33.08c0,14.96-3.14,23.23-8.39,29.27-5.41,5.69-11.81,8.83-18.72,10.84-6.94,1.76-14.39,2.35-20.97,2.74-1.28.08-3.15.13-3.15.13v-8.1c2.2-.07,4.67-.26,6.64-.46,2.49-.26,5.01-.4,7.45-.93,3.77-.82,7.39-2.1,10.64-4.29,5.04-3.4,8.1-8.2,9.76-13.93,1.43-4.95,2.09-10.03,2.05-15.21-.07-7.39,0-14.79,0-22.18v-1.79h0Z" fill="#fff"/><path id="path4387" d="m117.54,119.28s.56-1.82.76-2.74c.67-3.09,1.37-6.21,1.49-9.37.25-6.71.41-13.43.48-20.14.08-7.66.02-15.32.02-22.98v-1.76h32.74v10.71c-4.57-1.43-13.61-1.37-18.14-1.39v14.14c5.13-.07,10.5.18,15.59-.72v10.88c-5.12-.72-10.18-.82-15.59-.72-.06,4.93,0,10.31-.53,14.62,6.71.02,13.57.34,20.1-1.11.03,1.19,0,10.6,0,10.6h-36.91v-.02Z" fill="#fff"/><path id="path4389" d="m9.2,0c1.66.62,3.38,1.12,4.97,1.88,3.21,1.52,6.02,3.66,8.3,6.37,1.56,1.86,2.78,3.98,3.63,6.3,1.33,3.65,1.32,7.38.52,11.08-.71,3.29-1.87,6.46-3.41,9.47-1.57,3.08-3.25,6.11-4.82,9.2-2.16,4.25-4.36,8.49-5.46,13.17-.93,3.98-.75,7.95.64,11.82.36,1,.75,2,1.27,2.92.49.87,1.18,1.63,1.71,2.69-.53-.17-1.05-.38-1.59-.5-5.05-1.16-8.87-4.11-11.73-8.28-1.81-2.64-2.86-5.69-3.12-8.89-.29-3.67,0-7.29,1.04-10.9,1.39-4.88,3.65-9.33,5.96-13.79,2.32-4.47,4.82-8.88,6.41-13.68,1.26-3.83,1.79-7.81.41-11.73-.79-2.23-2.15-4.17-3.94-5.77-.36-.32-.78-.57-1.17-.86.12-.16.25-.32.37-.48h0v-.02Z" fill="#fff"/></svg>