<svg xmlns="http://www.w3.org/2000/svg" width="198.441" height="62.995" viewBox="0 0 198.441 62.995">
  <g id="lapiazza-logo-white" transform="translate(0 0)">
    <path id="Pfad_3639" data-name="Pfad 3639" d="M25.357.928a2.573,2.573,0,0,1,.8,1.905c0,1.638-.882,3.249-2.291,5.9s-3.456,5.56-5.665,8.928-4.626,6.9-7.248,10.6S4.741,38.412,4.741,38.412s-.118.37.509.249A36.914,36.914,0,0,1,9.4,38.334c2.078,0,5.532.448,7.714.388a30.142,30.142,0,0,0,4.923-.612c.557-.116,1.055.381,1.377.946a5.285,5.285,0,0,1,.534,2.088,1.212,1.212,0,0,1-.875,1.273,7.174,7.174,0,0,1-2.03.414,27.331,27.331,0,0,1-6.6-.825c-2.379-.571-8.881-.761-11.539.052a7.614,7.614,0,0,0-1.645.66,2.394,2.394,0,0,1-.538.29c-1.423.283-.53-1.811.787-4.431.937-1.865,2.237-4.073,3.811-6.669s3.285-5.4,5.136-8.408,3.589-5.881,5.218-8.615S18.631,9.723,19.653,7.6,21.195,4.47,21.14,3.642c0-.331-.224-.619-.666-.841s-.712-.543-.645-.968C19.9,1.374,20.622.777,20.918.6a3.65,3.65,0,0,1,4.439.331" transform="translate(0 0)" fill="#fff"/>
    <path id="Pfad_3640" data-name="Pfad 3640" d="M110.883,86.89a6.771,6.771,0,0,0-1.077.663A23.148,23.148,0,0,1,107.487,89a26.107,26.107,0,0,1-3.065,1.45,6.792,6.792,0,0,1-3.239.669c-.078-.007-.189-.149-.191-.382a6.184,6.184,0,0,1,.656-1.9q.621-1.448,1.408-2.941t1.491-2.65c.469-.773.76-1.073.787-1.16.1-.315-.18-.621-.538-.87a15.377,15.377,0,0,0-2.6-1.757,12.886,12.886,0,0,0-3.718,5.692,14.163,14.163,0,0,0-.763,2.526,23.6,23.6,0,0,1-3.526,2.485A8.786,8.786,0,0,1,90.174,91.2a5.605,5.605,0,0,1-1.657-.208.842.842,0,0,1-.663-.869,2.8,2.8,0,0,1,.414-1.326,7.3,7.3,0,0,1,1.077-1.449q.662-.7,1.367-1.326T92.079,84.9a47.556,47.556,0,0,1,8.523-4.424,8.278,8.278,0,0,0,1.973-.848c.469-.452.217-1.2.106-1.561a6.893,6.893,0,0,0-.414-1.036,4.013,4.013,0,0,0-.58-.87c-.221-.249-.467-.474-.662-.373a6.882,6.882,0,0,1-1.242.5q-1.243.415-3.148,1.2a44.557,44.557,0,0,0-4.059,1.947,26.585,26.585,0,0,0-4.059,2.692,14.77,14.77,0,0,0-3.148,3.438,7.435,7.435,0,0,0-1.242,4.142,4.376,4.376,0,0,0,1.532,3.478,5.441,5.441,0,0,0,3.686,1.326,9.015,9.015,0,0,0,4.473-1.16,23.726,23.726,0,0,0,3.479-2.32,7.016,7.016,0,0,0,.995,2.734,2.519,2.519,0,0,0,2.568.994,11.14,11.14,0,0,0,3.189-1.035,25.141,25.141,0,0,0,3.562-2.029,17.032,17.032,0,0,0,2.858-2.4c.772-.828,1.2-1.378,1.2-1.93a.59.59,0,0,0-.784-.472" transform="translate(-61.05 -54.982)" fill="#fff"/>
    <path id="Pfad_3641" data-name="Pfad 3641" d="M416.6,42.944q-.733,0,.045-1.645a27.5,27.5,0,0,1,2.147-3.654q1.372-2.008,2.832-3.836a9.358,9.358,0,0,1,2.009-2.1,10.993,10.993,0,0,1,1.736,1.233,5.447,5.447,0,0,1,1.37,1.69q0,.367-1.141,1.69a33.382,33.382,0,0,1-2.741,2.786,30.23,30.23,0,0,1-3.334,2.649,5.553,5.553,0,0,1-2.923,1.188" transform="translate(-302.062 -23.01)" fill="#fff"/>
    <path id="Pfad_3642" data-name="Pfad 3642" d="M251.7,13.268a11.632,11.632,0,0,0-4.266-3.106,21.181,21.181,0,0,0-5.675-1.532,44.958,44.958,0,0,0-5.923-.414q-1.16,0-2.153.041c-.662.029-1.2.066-1.905.124-.681.056-2.655.3-3.534.439-.918.144-2.028.405-3.341.72a43.961,43.961,0,0,0-4.308,1.284q-2.236.788-4.514,1.822a23.706,23.706,0,0,0-4.059,2.319,12.844,12.844,0,0,0-2.9,2.816,5.453,5.453,0,0,0-1.118,3.272,4.061,4.061,0,0,0,.456,1.988,5.964,5.964,0,0,0,.994,1.367,3.787,3.787,0,0,0,1.077.787,2.185,2.185,0,0,0,.787.248q.746,0,.746-.911,0-.414-.041-.87c-.029-.3-.041-.649-.041-1.036v-.663a2.015,2.015,0,0,1,.165-.745q0-.33,1.035-1.284a19.946,19.946,0,0,1,2.9-2.112,43.622,43.622,0,0,1,4.307-2.319,29.66,29.66,0,0,1,5.343-1.905c-.166.221-16.3,25.062-16.3,25.062a5.058,5.058,0,0,0-1.209-.384,1.426,1.426,0,0,0-1.234,2.139,6.23,6.23,0,0,0,.919.638v0c-1.362,2.066-9.993,15.424-10.479,16.332s-.619,1.621-.274,2.062a1.506,1.506,0,0,0,1.4.433,2.18,2.18,0,0,0,1.2-.814c.342-.522,10.546-15.677,11.595-17.223a17.647,17.647,0,0,0,3.282.7,46.708,46.708,0,0,0,5.55.29,46.769,46.769,0,0,0,11.141-1.325,34.564,34.564,0,0,0,9.9-4.059,34.259,34.259,0,0,0,7.666-6.648,17.659,17.659,0,0,0,4.758-12.434,7.832,7.832,0,0,0-1.945-5.106M247.638,26.45a33.976,33.976,0,0,1-5.008,6.036c-6.452,6.452-23.644,8.664-30.093,7.124,1.1-1.491,20.525-26.963,20.525-26.963l1.243-.083q1.864-.124,3.769-.124a29.825,29.825,0,0,1,4.141.29,13.122,13.122,0,0,1,3.687,1.035,6.725,6.725,0,0,1,2.61,2.071,5.513,5.513,0,0,1,.994,3.4,13.565,13.565,0,0,1-1.868,7.218" transform="translate(-142.931 -5.962)" fill="#fff"/>
    <path id="Pfad_3643" data-name="Pfad 3643" d="M468.41,87.3a6.756,6.756,0,0,0-1.077.663,23.313,23.313,0,0,1-2.319,1.449,26.083,26.083,0,0,1-3.065,1.45,6.79,6.79,0,0,1-3.239.669c-.078-.007-.19-.149-.191-.382a6.188,6.188,0,0,1,.656-1.9q.621-1.449,1.409-2.941t1.49-2.651c.469-.773.76-1.073.788-1.16.1-.316-.181-.621-.539-.87a25.31,25.31,0,0,0-2.219-1.587h0c.469-.452.216-1.2.107-1.561a6.917,6.917,0,0,0-.414-1.036,4.037,4.037,0,0,0-.58-.87c-.222-.248-.467-.474-.663-.373a6.889,6.889,0,0,1-1.243.5q-1.243.416-3.148,1.2a44.531,44.531,0,0,0-4.059,1.947,26.564,26.564,0,0,0-4.058,2.692,14.776,14.776,0,0,0-3.148,3.438,7.436,7.436,0,0,0-1.243,4.142,4.99,4.99,0,0,0,.235,1.559,87.154,87.154,0,0,0-12.791,8.958,77.016,77.016,0,0,0-6.627,6.71q3.148-4.8,5.26-7.413t3.4-4.018a20.155,20.155,0,0,1,1.559-1.61,9.047,9.047,0,0,0,1.631-1.952c.165-.275-.049-.666-.29-.85a3.308,3.308,0,0,0-1.205-.634,10.806,10.806,0,0,1-2.031-1.015c-.063-.212,1.268-.8,2.214-1.1,1.167-.372,1.556-.453,2.223-.667a43.359,43.359,0,0,0,4.473-1.739,27.126,27.126,0,0,0,4.555-2.609A3.918,3.918,0,0,0,445.83,81.5a1.615,1.615,0,0,0-.912-1.988,17.571,17.571,0,0,0-3.727-1.491,20.028,20.028,0,0,0-4.266-.7,16.408,16.408,0,0,0-4.224.29,9.835,9.835,0,0,0-3.484,1.384,18.675,18.675,0,0,0-2.687-.971,20.024,20.024,0,0,0-4.267-.7,16.415,16.415,0,0,0-4.225.29,9.8,9.8,0,0,0-3.519,1.408,1.277,1.277,0,0,0-.457.745,4.073,4.073,0,0,0-.124.994c0,.442.339,3.316.621,5.55a1.231,1.231,0,0,0,.538.87,1.007,1.007,0,0,0,.257.122,8.278,8.278,0,0,0-.726.477,23.292,23.292,0,0,1-2.32,1.449,26,26,0,0,1-3.065,1.45,6.781,6.781,0,0,1-3.239.669c-.078-.007-.19-.148-.191-.382a6.182,6.182,0,0,1,.656-1.9q.622-1.448,1.409-2.94t1.491-2.651c.468-.773.76-1.073.787-1.16.1-.315-.181-.621-.538-.87a25.526,25.526,0,0,0-2.219-1.587c.469-.452.216-1.2.107-1.561a6.931,6.931,0,0,0-.414-1.035,4,4,0,0,0-.58-.87c-.222-.249-.468-.474-.663-.373a6.827,6.827,0,0,1-1.242.5q-1.242.416-3.148,1.2a44.578,44.578,0,0,0-4.059,1.947,26.627,26.627,0,0,0-4.059,2.692,14.784,14.784,0,0,0-3.148,3.438,7.848,7.848,0,0,0-.733,1.414,70.263,70.263,0,0,1-7.5,3.207c-1.822.47-4.539.863-4.878.62-.262-.188.118-1.052.882-2.195.841-1.256,1.628-2.233,2.669-3.6.96-1.262,2.157-2.694,2.959-3.716s.734-1.578.034-2.083a5.83,5.83,0,0,0-2.982-1.242q-.663,0-1.9,1.574a32.869,32.869,0,0,0-2.486,3.686,44.228,44.228,0,0,0-2.195,4.224,8.789,8.789,0,0,0-.953,3.272,3.953,3.953,0,0,0,.562,2.3,3.077,3.077,0,0,0,2.42,1.342,9.759,9.759,0,0,0,4.391-.663,41.111,41.111,0,0,0,5.26-2.237q1.737-.881,3.216-1.709a4.368,4.368,0,0,0,1.532,3.427,5.441,5.441,0,0,0,3.686,1.326,9.009,9.009,0,0,0,4.473-1.16,23.707,23.707,0,0,0,3.479-2.319,7.011,7.011,0,0,0,.994,2.733,2.52,2.52,0,0,0,2.568.994,11.122,11.122,0,0,0,3.189-1.034,25.155,25.155,0,0,0,3.133-1.743,4.914,4.914,0,0,0,1.1,1.143q-.826.913-2.94,3.189a53.2,53.2,0,0,0-4.266,5.3,48.167,48.167,0,0,0-3.852,6.419,14.631,14.631,0,0,0-1.7,6.544,4.019,4.019,0,0,0,.54,2.278,2.318,2.318,0,0,0,1.284.994,2.174,2.174,0,0,0,1.615-.248,5.331,5.331,0,0,0,1.615-1.45c2.007-2.51,4.507-6.252,6.67-8.917,3.685-4.544,9.362-8.745,13.011-11.2l-.257.277a53.2,53.2,0,0,0-4.266,5.3,48.16,48.16,0,0,0-3.851,6.419,14.623,14.623,0,0,0-1.7,6.544,4.022,4.022,0,0,0,.539,2.278,2.32,2.32,0,0,0,1.284.994,2.177,2.177,0,0,0,1.616-.248,4.84,4.84,0,0,0,1.615-1.45c10.464-14.193,18.681-19.816,23.044-22.843l.075.066a5.439,5.439,0,0,0,3.686,1.326,9.012,9.012,0,0,0,4.473-1.16,23.674,23.674,0,0,0,3.479-2.32,7,7,0,0,0,.995,2.733,2.517,2.517,0,0,0,2.567.994,11.133,11.133,0,0,0,3.19-1.034,25.072,25.072,0,0,0,3.561-2.03,17.018,17.018,0,0,0,2.858-2.4c.772-.828,1.2-1.378,1.2-1.93a.589.589,0,0,0-.784-.472m-34.669-5.9c.238-.428,7.628.174,7.628.174s-2.507,1.789-3.868,2.586c-1.491.873-3.358,1.257-3.59,1.063a9.432,9.432,0,0,1-.17-3.822m-30.436,3.972a14.209,14.209,0,0,0-.763,2.526,23.665,23.665,0,0,1-3.526,2.485A8.785,8.785,0,0,1,395,91.421a5.633,5.633,0,0,1-1.657-.207.843.843,0,0,1-.663-.869,2.793,2.793,0,0,1,.414-1.326,7.258,7.258,0,0,1,1.077-1.449q.662-.7,1.367-1.325t1.367-1.119a47.552,47.552,0,0,1,8.523-4.424c.267-.1.541-.194.8-.289a13.829,13.829,0,0,0-2.921,4.962m15.433-3.465c.237-.428,7.627.174,7.627.174s-2.508,1.789-3.869,2.586c-1.491.872-3.358,1.257-3.59,1.063a9.417,9.417,0,0,1-.169-3.822m-4.3,18.728a69.52,69.52,0,0,0-6.626,6.71q3.148-4.8,5.26-7.413t3.4-4.018c.855-.939,2.885-2.551,3.35-3.481.144-.287-.134-.619-.576-.867s-3.224-1.474-3.611-1.586c.663-.22,3.486-1.367,4.937-1.894,1.419-.515,2.926-1.048,4.473-1.739a26.733,26.733,0,0,0,3.966-2.2c.1,1.1.185,2.018.216,2.163a1.36,1.36,0,0,0,.539.87,2.54,2.54,0,0,0,1.408.29,28,28,0,0,0-3.4,1.657q-1.242.745-1.408,1.408a2.188,2.188,0,0,0,.29,1.656c.077.112.158.221.244.325-.156.07-.319.147-.491.229a58.452,58.452,0,0,0-6.089,3.3,60.343,60.343,0,0,0-5.882,4.6m41.572-15.073a14.189,14.189,0,0,0-.763,2.526,23.637,23.637,0,0,1-3.526,2.485,8.787,8.787,0,0,1-4.017,1.036,5.6,5.6,0,0,1-1.656-.207.842.842,0,0,1-.663-.869,2.793,2.793,0,0,1,.414-1.326,7.247,7.247,0,0,1,1.077-1.449q.662-.7,1.366-1.325t1.367-1.118a47.544,47.544,0,0,1,8.523-4.424c.266-.1.541-.194.8-.289a13.835,13.835,0,0,0-2.921,4.962" transform="translate(-270.754 -55.144)" fill="#fff"/>
  </g>
</svg>
