<svg xmlns="http://www.w3.org/2000/svg" viewBox="0 0 2480.51 731"><g id="Ebene_2-2"><path d="m1428.52,293.55c0-17.19,4.23-33.24,11.28-48.14,6.07-12.84,26.69-47.58,45.11-87.11,9.09-19.5,46.52-143.27-49.34-158.17-.22-.09-.55-.18-.86-.1-3.39.96,2.27,4.68,13.54,21.87,0,0,14.48,20.46,12.69,48.14-1.41,21.78-.09,28.06-16.92,68.77-17.01,46.4-71.66,98.58-67.66,157.02,4.23,61.89,35.01,104.38,39.47,112.32,29.6,52.72,52.1,60.71,50.75,110.03-1.41,51.58-50.84,83.08-63.43,118.05,0,0-18.51,57.27,35.15,86.52,3.67,2,31.35,10.85,28.29,7.47-35.24-38.97-30.3-61.86,9.87-114.62,18.33-24.07,47.93-63.91,47.93-102.01,0-34.38-22.55-61.89-42.29-92.84-38.94-61.06-53.57-104.48-53.57-127.22Z" fill="#fff"/><path d="m121.89,270.88c-10.81-9.59-25.99-14.39-45.51-14.39H13.34c-4.19,0-7.46,1.18-9.81,3.53s-3.53,5.54-3.53,9.55v159.03c0,4.19,1.22,7.5,3.66,9.94,2.44,2.44,5.66,3.66,9.68,3.66,4.36,0,7.72-1.22,10.07-3.66,2.35-2.44,3.53-5.75,3.53-9.94v-61.47h49.44c19.53,0,34.7-4.88,45.51-14.65,10.81-9.76,16.22-23.37,16.22-40.8s-5.41-31.21-16.22-40.8Zm-48.39,74.55H26.94v-67.22h46.56c25.81,0,38.71,11.16,38.71,33.48s-12.91,33.74-38.71,33.74Z" fill="#fff"/><path d="m238.81,310.11c-9.42,0-17.79,1.92-25.11,5.75-7.32,3.84-13.17,9.42-17.52,16.74v-65.39c0-3.66-1.18-6.58-3.53-8.76-2.35-2.18-5.45-3.27-9.29-3.27s-7.28,1.14-9.81,3.4c-2.53,2.27-3.79,5.32-3.79,9.15v161.91c0,3.84,1.22,6.89,3.66,9.15,2.44,2.26,5.66,3.4,9.68,3.4s7.19-1.14,9.55-3.4c2.35-2.26,3.53-5.32,3.53-9.15v-61.47c0-11.16,3.22-20.05,9.68-26.68,6.45-6.62,15-9.94,25.63-9.94,9.06,0,15.73,2.44,20.01,7.32,4.27,4.88,6.41,12.56,6.41,23.02v67.75c0,3.84,1.18,6.89,3.53,9.15,2.35,2.26,5.53,3.4,9.55,3.4s7.23-1.14,9.68-3.4c2.44-2.26,3.66-5.32,3.66-9.15v-68.01c0-34.35-15.17-51.53-45.51-51.53Z" fill="#fff"/><path d="m433.28,314.3c-2.53-2.26-5.45-3.4-8.76-3.4-2.27,0-4.41.61-6.41,1.83-2.01,1.22-3.53,3.14-4.58,5.75l-40.28,89.72-40.54-89.98c-2.27-4.88-6.02-7.32-11.25-7.32-3.49,0-6.63,1.14-9.42,3.4-2.79,2.27-4.19,5.06-4.19,8.37,0,1.75.35,3.31,1.05,4.71l50.48,107.24-18.05,38.45c-.87,2.09-1.31,3.83-1.31,5.23,0,3.14,1.26,5.75,3.79,7.85,2.53,2.09,5.36,3.14,8.5,3.14,2.26,0,4.4-.65,6.41-1.96,2-1.31,3.53-3.18,4.58-5.62l72.72-154.32c.69-1.57,1.05-3.22,1.05-4.97,0-3.14-1.27-5.84-3.79-8.11Z" fill="#fff"/><path d="m537.25,375.76c-6.63-3.14-15.78-5.93-27.46-8.37-11.34-2.44-19.05-5.01-23.15-7.72-4.1-2.7-6.15-6.49-6.15-11.38,0-5.4,2.22-9.68,6.67-12.82,4.45-3.14,10.33-4.71,17.66-4.71,6.1,0,11.2.78,15.3,2.35,4.09,1.57,8.5,3.75,13.21,6.54,2.62,1.57,4.71,2.71,6.28,3.4,1.57.7,3.14,1.05,4.71,1.05,2.26,0,4.23-.96,5.89-2.88,1.66-1.92,2.48-4.27,2.48-7.06,0-5.06-2.88-9.5-8.63-13.34-5.06-3.49-10.9-6.15-17.52-7.98-6.63-1.83-13.43-2.75-20.4-2.75-9.77,0-18.49,1.66-26.16,4.97-7.68,3.31-13.69,7.98-18.05,13.99-4.36,6.02-6.54,12.78-6.54,20.27,0,9.77,3.35,17.48,10.07,23.15,6.71,5.67,17.74,10.16,33.09,13.47,8.89,1.92,15.6,3.71,20.14,5.36,4.53,1.66,7.72,3.53,9.55,5.62s2.75,4.88,2.75,8.37c0,5.41-2.35,9.59-7.06,12.56-4.71,2.97-11.25,4.45-19.62,4.45-7.5,0-13.73-.87-18.7-2.62-4.97-1.74-10.07-4.01-15.3-6.8-4.88-2.79-8.46-4.19-10.72-4.19-2.44,0-4.45.96-6.02,2.88-1.57,1.92-2.35,4.28-2.35,7.06,0,2.62.65,4.97,1.96,7.06,1.31,2.09,3.53,4.1,6.67,6.02,11.33,7.32,25.9,10.99,43.68,10.99,15.87,0,28.55-3.44,38.06-10.33,9.5-6.89,14.26-16,14.26-27.33,0-7.15-1.44-13.03-4.32-17.66-2.88-4.62-7.63-8.5-14.26-11.64Z" fill="#fff"/><path d="m600.81,310.63c-3.84,0-7.02,1.09-9.55,3.27-2.53,2.18-3.79,5.36-3.79,9.55v106.2c0,4.18,1.26,7.32,3.79,9.42,2.53,2.09,5.71,3.14,9.55,3.14s6.97-1.05,9.42-3.14c2.44-2.09,3.66-5.23,3.66-9.42v-106.2c0-4.19-1.22-7.36-3.66-9.55-2.44-2.18-5.58-3.27-9.42-3.27Z" fill="#fff"/><path d="m612.71,258.97c-3.05-2.7-7.02-4.05-11.9-4.05s-9.07,1.35-12.03,4.05c-2.97,2.71-4.45,6.32-4.45,10.85s1.48,8.2,4.45,10.99c2.96,2.79,6.97,4.19,12.03,4.19s9.06-1.39,12.03-4.19c2.96-2.79,4.45-6.45,4.45-10.99s-1.53-8.15-4.58-10.85Z" fill="#fff"/><path d="m741.66,318.22c-9.51-5.4-20.53-8.11-33.09-8.11s-23.59,2.71-33.09,8.11c-9.51,5.41-16.83,13.12-21.97,23.15-5.15,10.03-7.72,21.76-7.72,35.18s2.57,24.89,7.72,34.92c5.14,10.03,12.47,17.75,21.97,23.15,9.5,5.41,20.53,8.11,33.09,8.11s23.58-2.7,33.09-8.11c9.5-5.4,16.83-13.12,21.97-23.15,5.14-10.03,7.72-21.67,7.72-34.92s-2.58-25.15-7.72-35.18c-5.15-10.03-12.47-17.74-21.97-23.15Zm-6.28,92.07c-6.19,7.68-15.13,11.51-26.81,11.51s-20.62-3.83-26.81-11.51c-6.19-7.67-9.29-18.92-9.29-33.74s3.14-25.85,9.42-33.61c6.28-7.76,15.17-11.64,26.68-11.64s20.4,3.88,26.68,11.64c6.28,7.76,9.42,18.96,9.42,33.61s-3.1,26.07-9.29,33.74Z" fill="#fff"/><path d="m949.48,310.11c-9.59,0-18.14,2.22-25.63,6.67-7.5,4.45-13.17,10.42-17,17.92-3.14-8.37-7.89-14.56-14.26-18.57-6.37-4.01-14.43-6.02-24.2-6.02-8.89,0-16.74,1.92-23.54,5.75-6.8,3.84-12.12,9.42-15.96,16.74v-9.68c0-3.83-1.18-6.84-3.53-9.02-2.35-2.18-5.36-3.27-9.02-3.27s-6.8,1.14-9.42,3.4c-2.62,2.27-3.92,5.32-3.92,9.15v106.46c0,4.01,1.26,7.11,3.79,9.29,2.53,2.18,5.71,3.27,9.55,3.27s6.97-1.09,9.42-3.27c2.44-2.18,3.66-5.27,3.66-9.29v-61.47c0-11.33,2.83-20.27,8.5-26.81,5.66-6.54,13.29-9.81,22.89-9.81,8.19,0,14.21,2.4,18.05,7.19,3.83,4.8,5.75,12.51,5.75,23.15v67.75c0,4.01,1.22,7.11,3.66,9.29,2.44,2.18,5.58,3.27,9.42,3.27s7.23-1.09,9.68-3.27c2.44-2.18,3.66-5.27,3.66-9.29v-61.47c0-11.33,2.79-20.27,8.37-26.81,5.58-6.54,13.16-9.81,22.76-9.81,8.19,0,14.21,2.4,18.05,7.19,3.83,4.8,5.75,12.51,5.75,23.15v67.75c0,4.01,1.22,7.11,3.66,9.29,2.44,2.18,5.58,3.27,9.42,3.27s7.23-1.09,9.68-3.27c2.44-2.18,3.66-5.27,3.66-9.29v-68.01c0-34.35-14.3-51.53-42.9-51.53Z" fill="#fff"/><path d="m1140.16,371.06c0-18.66-4.97-33.48-14.91-44.47s-23.46-16.48-40.54-16.48c-11.86,0-22.45,2.79-31.78,8.37-9.33,5.58-16.57,13.43-21.71,23.54-5.15,10.12-7.72,21.71-7.72,34.79,0,20.4,5.84,36.49,17.52,48.26,11.68,11.77,27.64,17.66,47.87,17.66,6.62,0,13.56-.96,20.79-2.88,7.23-1.92,13.9-4.62,20.01-8.11,6.28-3.49,9.42-7.76,9.42-12.82,0-2.96-.78-5.4-2.35-7.32-1.57-1.92-3.58-2.88-6.02-2.88-1.57,0-3.53.57-5.89,1.7-2.35,1.14-3.79,1.88-4.32,2.22-5.23,2.79-10.2,5.06-14.91,6.8-4.71,1.75-10.29,2.62-16.74,2.62-24.24,0-37.23-13.51-38.97-40.54h80.82c6.28,0,9.42-3.49,9.42-10.46Zm-90.24-4.71c1.22-11.68,4.88-20.75,10.99-27.2,6.1-6.45,14.21-9.68,24.33-9.68s17.66,3.18,23.15,9.55c5.49,6.37,8.5,15.48,9.02,27.33h-67.48Z" fill="#fff"/><path d="m1275.91,255.18c-4.01,0-7.19,1.09-9.55,3.27-2.36,2.18-3.53,5.1-3.53,8.76v66.44c-3.84-7.5-9.38-13.3-16.61-17.39-7.24-4.1-15.65-6.15-25.24-6.15-11.16,0-21.02,2.71-29.56,8.11-8.55,5.41-15.22,13.08-20.01,23.02-4.8,9.94-7.19,21.54-7.19,34.79s2.4,24.68,7.19,34.79c4.79,10.12,11.51,17.96,20.14,23.54,8.63,5.58,18.44,8.37,29.43,8.37,9.59,0,18.05-2.05,25.37-6.15,7.32-4.1,12.9-9.98,16.74-17.66v10.46c0,4.01,1.18,7.15,3.53,9.42,2.35,2.26,5.53,3.4,9.55,3.4s7.19-1.14,9.55-3.4c2.35-2.26,3.53-5.4,3.53-9.42v-161.65c0-3.83-1.22-6.89-3.66-9.15-2.44-2.26-5.67-3.4-9.68-3.4Zm-22.23,154.85c-6.28,7.85-15.08,11.77-26.42,11.77s-20.23-4.05-26.68-12.16c-6.45-8.11-9.68-19.31-9.68-33.61s3.18-25.33,9.55-33.09c6.36-7.76,15.3-11.64,26.81-11.64s20.36,3.92,26.55,11.77c6.19,7.85,9.29,19.01,9.29,33.48s-3.14,25.63-9.42,33.48Z" fill="#fff"/><path d="m1693.2,345.95c9.24-3.49,16.43-8.8,21.58-15.96,5.14-7.15,7.72-15.6,7.72-25.37,0-15.17-5.36-26.98-16.09-35.44-10.72-8.46-25.59-12.69-44.6-12.69h-63.82c-4.18,0-7.45,1.18-9.81,3.53-2.35,2.35-3.53,5.54-3.53,9.55v158.25c0,4.01,1.18,7.19,3.53,9.55s5.62,3.53,9.81,3.53h66.7c19.53,0,34.74-4.4,45.64-13.21,10.9-8.8,16.35-21.14,16.35-37.01,0-11.51-2.92-21.1-8.76-28.77-5.84-7.67-14.08-12.99-24.72-15.96Zm-82.13-67.75h46.56c13.08,0,22.8,2.35,29.16,7.06,6.36,4.71,9.55,11.95,9.55,21.71,0,19.53-12.91,29.3-38.71,29.3h-46.56v-58.07Zm80.3,133.66c-6.28,4.88-16.13,7.32-29.56,7.32h-50.74v-61.21h50.74c13.25,0,23.06,2.57,29.43,7.72,6.36,5.15,9.55,12.95,9.55,23.41s-3.14,17.88-9.42,22.76Z" fill="#fff"/><path d="m1828.16,310.63l-3.66.26c-8.37.7-15.87,3.05-22.49,7.06-6.63,4.01-11.68,9.85-15.17,17.52v-12.56c0-3.83-1.18-6.84-3.53-9.02-2.35-2.18-5.28-3.27-8.76-3.27-3.84,0-7.02,1.09-9.55,3.27-2.53,2.18-3.79,5.28-3.79,9.29v106.46c0,4.18,1.26,7.32,3.79,9.42,2.53,2.09,5.71,3.14,9.55,3.14s6.97-1.05,9.42-3.14c2.44-2.09,3.66-5.23,3.66-9.42v-59.9c0-9.42,2.66-17.43,7.98-24.06,5.32-6.62,13.47-10.46,24.46-11.51l7.85-.78c4.71-.35,8.02-1.48,9.94-3.4,1.92-1.92,2.88-4.79,2.88-8.63,0-7.67-4.19-11.25-12.56-10.72Z" fill="#fff"/><path d="m1966.01,371.06c0-18.66-4.97-33.48-14.91-44.47s-23.46-16.48-40.54-16.48c-11.86,0-22.45,2.79-31.78,8.37-9.33,5.58-16.57,13.43-21.71,23.54-5.15,10.12-7.72,21.71-7.72,34.79,0,20.4,5.84,36.49,17.53,48.26,11.68,11.77,27.64,17.66,47.87,17.66,6.62,0,13.56-.96,20.79-2.88,7.23-1.92,13.9-4.62,20.01-8.11,6.28-3.49,9.42-7.76,9.42-12.82,0-2.96-.79-5.4-2.35-7.32-1.57-1.92-3.58-2.88-6.02-2.88-1.57,0-3.53.57-5.89,1.7-2.35,1.14-3.79,1.88-4.32,2.22-5.23,2.79-10.2,5.06-14.91,6.8-4.71,1.75-10.29,2.62-16.74,2.62-24.24,0-37.23-13.51-38.97-40.54h80.82c6.28,0,9.42-3.49,9.42-10.46Zm-90.24-4.71c1.22-11.68,4.88-20.75,10.99-27.2,6.1-6.45,14.21-9.68,24.33-9.68s17.66,3.18,23.15,9.55c5.49,6.37,8.5,15.48,9.02,27.33h-67.48Z" fill="#fff"/><path d="m2143.87,310.11c-9.59,0-18.14,2.22-25.63,6.67-7.5,4.45-13.17,10.42-17,17.92-3.14-8.37-7.89-14.56-14.25-18.57-6.37-4.01-14.43-6.02-24.2-6.02-8.89,0-16.74,1.92-23.54,5.75-6.8,3.84-12.12,9.42-15.96,16.74v-9.68c0-3.83-1.18-6.84-3.53-9.02-2.35-2.18-5.36-3.27-9.02-3.27s-6.8,1.14-9.42,3.4c-2.62,2.27-3.92,5.32-3.92,9.15v106.46c0,4.01,1.26,7.11,3.79,9.29,2.53,2.18,5.71,3.27,9.55,3.27s6.97-1.09,9.42-3.27c2.44-2.18,3.66-5.27,3.66-9.29v-61.47c0-11.33,2.83-20.27,8.5-26.81,5.67-6.54,13.29-9.81,22.89-9.81,8.19,0,14.21,2.4,18.05,7.19,3.83,4.8,5.75,12.51,5.75,23.15v67.75c0,4.01,1.22,7.11,3.66,9.29,2.44,2.18,5.58,3.27,9.42,3.27s7.23-1.09,9.68-3.27c2.44-2.18,3.66-5.27,3.66-9.29v-61.47c0-11.33,2.79-20.27,8.37-26.81,5.58-6.54,13.16-9.81,22.76-9.81,8.19,0,14.21,2.4,18.05,7.19,3.83,4.8,5.75,12.51,5.75,23.15v67.75c0,4.01,1.22,7.11,3.66,9.29,2.44,2.18,5.58,3.27,9.42,3.27s7.23-1.09,9.68-3.27c2.44-2.18,3.66-5.27,3.66-9.29v-68.01c0-34.35-14.3-51.53-42.9-51.53Z" fill="#fff"/><path d="m2334.55,371.06c0-18.66-4.97-33.48-14.91-44.47s-23.46-16.48-40.54-16.48c-11.86,0-22.45,2.79-31.78,8.37-9.33,5.58-16.57,13.43-21.71,23.54-5.15,10.12-7.72,21.71-7.72,34.79,0,20.4,5.84,36.49,17.53,48.26,11.68,11.77,27.64,17.66,47.87,17.66,6.62,0,13.56-.96,20.79-2.88,7.23-1.92,13.9-4.62,20.01-8.11,6.28-3.49,9.42-7.76,9.42-12.82,0-2.96-.79-5.4-2.35-7.32-1.57-1.92-3.58-2.88-6.02-2.88-1.57,0-3.53.57-5.89,1.7-2.35,1.14-3.79,1.88-4.32,2.22-5.23,2.79-10.2,5.06-14.91,6.8-4.71,1.75-10.29,2.62-16.74,2.62-24.24,0-37.23-13.51-38.97-40.54h80.82c6.28,0,9.42-3.49,9.42-10.46Zm-90.24-4.71c1.22-11.68,4.88-20.75,10.99-27.2,6.1-6.45,14.21-9.68,24.33-9.68s17.66,3.18,23.15,9.55c5.49,6.37,8.5,15.48,9.02,27.33h-67.48Z" fill="#fff"/><path d="m2434.73,310.11c-9.42,0-17.88,2.01-25.37,6.02-7.5,4.01-13.34,9.85-17.52,17.53v-10.72c0-3.66-1.14-6.62-3.4-8.89-2.27-2.26-5.32-3.4-9.16-3.4s-7.02,1.18-9.55,3.53c-2.53,2.35-3.79,5.36-3.79,9.02v106.46c0,3.84,1.22,6.89,3.66,9.15,2.44,2.26,5.66,3.4,9.68,3.4s7.19-1.14,9.55-3.4c2.35-2.26,3.53-5.32,3.53-9.15v-61.47c0-11.16,3.22-20.05,9.68-26.68,6.45-6.62,15-9.94,25.63-9.94,9.07,0,15.74,2.53,20.01,7.59,4.27,5.06,6.41,12.99,6.41,23.8v66.7c0,3.84,1.18,6.89,3.53,9.15,2.35,2.26,5.53,3.4,9.55,3.4s7.45-1.09,9.81-3.27c2.35-2.18,3.53-5.27,3.53-9.29v-68.01c0-34.35-15.26-51.53-45.77-51.53Z" fill="#fff"/></g></svg>